<?xml version="1.0" encoding="UTF-8"?>
<svg id="Ebene_1" data-name="Ebene 1" xmlns="http://www.w3.org/2000/svg" viewBox="0 0 240 227.78">
  <defs>
    <style>
      .cls-1 {
        fill: #633d28;
      }

      .cls-2 {
        fill: #643e29;
      }

      .cls-3 {
        fill: #81563d;
      }

      .cls-4 {
        fill: #553221;
      }

      .cls-5 {
        fill: #81543b;
      }

      .cls-6 {
        fill: #81543c;
      }

      .cls-7 {
        fill: #502f20;
      }

      .cls-8 {
        fill: #82553d;
      }

      .cls-9 {
        fill: #704731;
      }

      .cls-10 {
        fill: #633e2a;
      }

      .cls-11 {
        fill: #633f2c;
      }

      .cls-12 {
        fill: #4f2e20;
      }

      .cls-13 {
        fill: #5a3624;
      }

      .cls-14 {
        fill: #4e2e1e;
      }

      .cls-15 {
        fill: #4c2d1e;
      }

      .cls-16 {
        fill: #7c513b;
      }

      .cls-17 {
        fill: #623d29;
      }

      .cls-18 {
        fill: #4f2e21;
      }

      .cls-19 {
        fill: #663e2b;
      }

      .cls-20 {
        fill: #513121;
      }

      .cls-21 {
        fill: #4e2e1f;
      }

      .cls-22 {
        fill: #633c2a;
      }

      .cls-23 {
        fill: #4d2e1f;
      }

      .cls-24 {
        fill: #613d2a;
      }

      .cls-25 {
        fill: #978375;
      }

      .cls-26 {
        fill: #513021;
      }

      .cls-27 {
        fill: #7f533b;
      }

      .cls-28 {
        fill: #80533c;
      }

      .cls-29 {
        fill: #643e2b;
      }

      .cls-30 {
        fill: #5b3a28;
      }

      .cls-31 {
        fill: #643c2a;
      }

      .cls-32 {
        fill: #653f2a;
      }

      .cls-33 {
        fill: #82563d;
      }

      .cls-34 {
        fill: #f1f0ec;
      }

      .cls-35 {
        fill: #4f2f21;
      }

      .cls-36 {
        fill: #502f1f;
      }

      .cls-37 {
        fill: #5d3c2b;
      }

      .cls-38 {
        fill: #4b2d1e;
      }

      .cls-39 {
        fill: #5d3928;
      }

      .cls-40 {
        fill: #653f2b;
      }

      .cls-41 {
        fill: #613b29;
      }

      .cls-42 {
        fill: #4c2e1f;
      }

      .cls-43 {
        fill: #653e2a;
      }

      .cls-44 {
        fill: #502f21;
      }

      .cls-45 {
        fill: #643d29;
      }

      .cls-46 {
        fill: #643e2a;
      }

      .cls-47 {
        fill: #4f2f1f;
      }

      .cls-48 {
        fill: #603c2b;
      }

      .cls-49 {
        fill: #523020;
      }

      .cls-50 {
        fill: #633d29;
      }

      .cls-51 {
        fill: #643c2b;
      }

      .cls-52 {
        fill: #7f543c;
      }

      .cls-53 {
        fill: #683f2b;
      }

      .cls-54 {
        fill: #633d2a;
      }

      .cls-55 {
        fill: #83563d;
      }

      .cls-56 {
        fill: #623d2a;
      }

      .cls-57 {
        fill: #80553c;
      }

      .cls-58 {
        fill: #4f2f20;
      }

      .cls-59 {
        fill: #4a2c1e;
      }

      .cls-60 {
        fill: #82553c;
      }

      .cls-61 {
        fill: #81553c;
      }

      .cls-62 {
        fill: #4d2f1f;
      }

      .cls-63 {
        fill: #513020;
      }

      .cls-64 {
        fill: #5a3928;
      }

      .cls-65 {
        fill: #523122;
      }

      .cls-66 {
        fill: #653e2b;
      }

      .cls-67 {
        fill: #603b28;
      }

      .cls-68 {
        fill: #633f2d;
      }

      .cls-69 {
        fill: #81553d;
      }

      .cls-70 {
        fill: #623c29;
      }

      .cls-71 {
        fill: #613c29;
      }

      .cls-72 {
        fill: #7e523b;
      }

      .cls-73 {
        fill: #603a28;
      }

      .cls-74 {
        fill: #663e2a;
      }

      .cls-75 {
        fill: #1f5c35;
      }

      .cls-76 {
        fill: #663d2c;
      }

      .cls-77 {
        fill: #643f2d;
      }

      .cls-78 {
        fill: #643d2a;
      }

      .cls-79 {
        fill: #653d29;
      }

      .cls-80 {
        fill: #4c2d1f;
      }

      .cls-81 {
        fill: #7f5239;
      }

      .cls-82 {
        fill: #623b28;
      }

      .cls-83 {
        fill: #523121;
      }

      .cls-84 {
        fill: #643f2b;
      }

      .cls-85 {
        fill: #80533b;
      }

      .cls-86 {
        fill: #7f523a;
      }

      .cls-87 {
        fill: #80543b;
      }

      .cls-88 {
        fill: #4e2e20;
      }

      .cls-89 {
        fill: #503020;
      }

      .cls-90 {
        fill: #4e2f20;
      }

      .cls-91 {
        fill: #623c2a;
      }

      .cls-92 {
        fill: #4f3020;
      }

      .cls-93 {
        fill: #5f3b2a;
      }

      .cls-94 {
        fill: #653d2a;
      }

      .cls-95 {
        fill: #4e2f1f;
      }

      .cls-96 {
        fill: #633c29;
      }

      .cls-97 {
        fill: #503021;
      }

      .cls-98 {
        fill: #663d2b;
      }

      .cls-99 {
        fill: #7e523a;
      }

      .cls-100 {
        fill: #502e20;
      }

      .cls-101 {
        fill: #613c2a;
      }

      .cls-102 {
        fill: #502f1e;
      }

      .cls-103 {
        fill: #31190d;
      }

      .cls-104 {
        fill: #4d2e20;
      }
    </style>
  </defs>
  <g>
    <polygon class="cls-34" points="191.93 32.77 204.9 42.85 210.96 57.05 201.09 53.54 191.93 32.77"/>
    <polygon class="cls-34" points="189 67.64 187.38 72.27 192.35 80.14 196.04 77.85 189 67.64"/>
    <polygon class="cls-34" points="218.17 67.41 223.89 78.32 220.76 80.91 215.29 75.99 218.17 67.41"/>
    <polygon class="cls-34" points="219.14 84.11 223.89 90.03 219.84 96.66 216.71 85.44 219.14 84.11"/>
    <polygon class="cls-34" points="201.23 120.1 196.52 136.93 198.87 141.77 206.71 135.27 201.23 120.1"/>
    <polygon class="cls-34" points="228.16 133.58 217.17 147.31 219.84 153.25 228.8 139.36 228.16 133.58"/>
    <polygon class="cls-34" points="209.2 168.88 199.28 190.97 182.08 201.38 167.48 213.09 151.26 219.24 147.77 214.84 180.7 179.24 183.56 162.19 191.94 152.93 209.2 168.88"/>
    <polygon class="cls-34" points="133.26 220.71 121.19 225.12 104.61 221.31 88 215.67 76.52 213.66 65.22 205.19 83.23 201.67 133.26 220.71"/>
    <polygon class="cls-34" points="72.26 177.27 56.27 185.08 32.94 178.6 25.17 164.9 43.91 161.5 63.73 169.44 72.26 177.27"/>
    <polygon class="cls-34" points="10.9 126.28 17.81 125.74 18.63 108.09 10.51 109.41 10.9 126.28"/>
    <polygon class="cls-34" points="40.64 102.28 44.56 86.05 21.63 70.77 11.06 91.67 40.64 102.28"/>
  </g>
  <polygon class="cls-34" points="56.69 27.03 53.22 36.19 58.08 38.07 75.82 29.05 92.77 22.42 115.85 11.79 132.57 11.81 160.81 21.53 172.7 26.69 175 20.94 156.4 9.94 140.5 9.01 120.78 2.13 106.24 6.39 82.19 11.05 69.36 17.17 56.69 27.03"/>
  <g>
    <g>
      <path class="cls-46" d="M198.8,93.84c-.37,1.91-.42,4.49-.35,6.52s.35,3.77.88,5.75c1.83,6.8,4.75,12.79,7.92,19.05,2.88,7.22,6.04,14.22,9.5,21,1.46,2.48,2.66,11.91,1.42,13.85-.11.17-.25.33-.4.48-.58.97-1.02,2-1.32,3.11l-.81,1.5c-.01,1.91-.35,4.1-1.05,5.89-.21.55-.48,1.21-1.14.96l1.18-7.76c1.21-2.16,2.18-4.33,2.66-6.81.58-3.86-.98-9.5-3.79-12.65.39,6.78.88,12.98.12,19.46-2.15,18.3-10.73,30.95-28.05,37.17l3.98-6.81c8.51-4.03,14.78-11.22,17.41-20.27,2.13-7.32,2.7-14.73,2.27-22.36-.32-5.74-.96-11.16-2.53-16.65-1.26-4.43-3.32-8.35-5.29-12.47l-1.96-4.09c-4.06-8.49-7.15-20.24-5.18-29.72l4.52,4.86Z"/>
      <path class="cls-22" d="M148.36,36.19c5.09,5.24,12.96,7.42,19.98,9.22l26.17,5.96c11.61,3.65,23.47,10.1,30.51,20.25,1.62,3.44,1.97,7.1,2.61,10.91.45,2.67,1.98,5.19,3.7,7.15,2.07,2.36,4.56,3.71,7.79,4.16-1.11.58-2.29.22-3.43-.13-3.73-1.15-6.53-3.85-8.47-7.2-1.48-2.55-3-4.87-5-7.05-.76-5.61-3.57-10.42-7.75-14.22-8.77-7.97-18.83-10.33-30.18-12.44-12.2-2.26-25.48-4.76-36.27-10.83-4.39-2.47-8.4-5.18-12.4-8.21l6.72-1.12,6.02,3.55Z"/>
      <path class="cls-19" d="M95.77,219.76l6.46-1.53,5.59,2.09c12.87,4.81,26.66.68,37.54-7.19l4.95-3.58,7.06-.09c-5.72,5.38-12.16,9.95-19.36,13.28-14.49,6.71-28.27,4.54-42.26-2.98Z"/>
      <path class="cls-6" d="M32.87,62.2c-.04,1.22-.25,2.38-.43,3.71-.87,6.43-1.22,12.77-.59,19.28.61,6.24,2.58,11.87,5.29,17.44,1.72,3.53,3.57,6.79,4.96,10.46.28.73.48,1.33.71,1.96.46-.1.73.14.82.73l.15,1.95c2.12,6.88,3.2,14.07,2.22,21.5l-3.28-3.54-.48-.88c.77-8.82.29-17.98-4.66-25.93-10.03-15.44-10.87-36.16-7.67-53.54,2.89-9.29,7.36-17.43,15.27-23.28.45-.32.69-.1.6.44-5.22,5.84-9.77,12.73-11.45,20.42l-1.46,9.29Z"/>
      <path class="cls-70" d="M42.73,135.69c-.37-.4-1.34-.89-1.43-1.6l-.84-7.06c-.73-6.12-2.74-11.84-5.79-17.23-3.32-5.87-5.65-11.84-7.67-18.27l-3.89-8.9c-2.42-5.54-3.48-11.46-2.94-17.34l.54.26c-.11,5.03,1.76,10.08,4.81,14.1l.28,1.26c.22.34-.04,1.18.94,1.2-.02-9.25.48-18.11,3.18-26.77l-.65,7.13c-1.2,11.36-.06,29.99,5.27,39.91,2,3.73,4.23,7.16,5.89,11.09,2.16,5.13,2.87,10.66,2.61,16.19l-.31,6.03Z"/>
      <path class="cls-43" d="M213.73,92.84c.25,1.51.75,2.94,1.5,4.29,5.94,7.67,11.53,15.64,13.94,25.29,1.67,6.7,1.65,13.13.64,19.77-.74,2.29-1.59,4.5-2.79,6.64-1.63,2.82-3.33,5.42-5.51,7.92-.05-2.07-.12-3.75-.7-5.72,9.8-13.45,7.29-30.82-1.45-44.33-1.98-3.06-4.18-5.67-6.51-8.42l-5.52-6.53c-2.09-2.47-3.95-4.96-5.42-7.83l.71-4.51c1.71,1.36,2.87,2.94,4.01,4.69,2.08,3.21,4.5,5.96,7.1,8.74Z"/>
      <path class="cls-85" d="M205.61,135.41c.09.91-.24,1.74-.97,2.5-4.78,5.43-9.69,10.72-14.75,15.87-3.76,4.11-6.69,8.89-8.74,14.05l-7.4,18.98c-1.17,4.01-9.86,14.87-14.31,14.57-.22-.01-.36-.36-.45-.61l3.8-4.51c4.64-5.51,8.15-11.63,10.55-18.44l3.02-8.54c2.17-6.16,5.54-11.6,9.83-16.57,3.31-3.85,6.99-7.04,10.78-10.39,2.99-2.65,5.64-5.28,8.02-8.65.52.6.42,1.2.63,1.76Z"/>
      <path class="cls-43" d="M27.9,130.69c4.69,5.25,8.96,10.25,11.75,17.09l-.64,7.04c-.59-.19-1.31-.58-1.51-1-1.29-6.04-5.74-12.42-9.99-16.96-5.97-6.38-10.9-13-14.66-20.88-1.28-2.68-2.06-5.32-2.88-8.19-2.53-8.88-1.96-18.31,1.91-26.55l.21,1.31c-2.73,12.44.06,25.9,6.33,36.92,2.4,4.22,5.39,8.82,9.47,11.23Z"/>
      <path class="cls-78" d="M74.44,211.64l-.37.47-2.77-.44c6.8,4.4,14.94,5,22.76,3.6,8.74-1.55,19.29-5.88,25.64-11.94l4.2-2.5,4.33,2.04c-4.37,3.61-8.9,6.38-13.77,8.91l-10.33,4.61c-17.52,6.27-32.85,2.18-45.69-11.09,3.41,1.03,6.47,2.17,9.9,2.63,2,1.52,4.04,2.6,6.12,3.72Z"/>
      <path class="cls-74" d="M124.53,207.02c2.65-1.6,5.23-3.43,7.76-5.5,7.43-6.39,15.16-12.62,23.19-18.68,4.83-2.77,9.49-5.78,13.98-9.04,1.55-.59,2.95-1.32,4.68-1.56l-2,5.72-5.87,2.68-7.62,4.21c-6.2,4.08-11.64,8.7-16.96,13.88-4.37,4.25-8.68,8.19-13.57,11.81-4.47,3.35-5.03,2.58-10.18.49l6.59-4.01Z"/>
      <path class="cls-56" d="M208.84,79.66c.35,2.33,1,4.32.8,6.8-3.53-5.52-7.82-9.74-13.28-13.04l-12.69-6.93c-7-3.82-12.51-8.87-16.02-16.08l5.85,1.34c3.92,5.42,9.93,9.1,15.7,12.36,6.97,3.95,15.03,8.92,19.65,15.54Z"/>
      <path class="cls-70" d="M73.49,46.71c.33.11.71-.03,1.33-.31,12.91-5.76,25-15.82,35.31-25.32l.75-.14,3.63,2.05c-9.59,6.46-17.66,14.18-26.86,20.99-6.75,4.99-13.89,8.96-21.86,11.88l2.43-6.69c1.89-.72,3.53-1.59,5.27-2.46Z"/>
      <path class="cls-78" d="M195.41,170.32c-.9,1.27-1.69,2.6-2.35,4-2.91,11.21-6.52,21.4-14.5,30.84-4.1,4.85-9.37,9.5-14.21,12.06-6.21,2.52-12.86,3.8-19.65,3.47l6.58-4.58c7.67-.72,14.7-3.68,20.76-8.47,11.41-9.02,16.16-21.72,18.58-35.72l4.89-3.3c.23.66-.02,1.13-.11,1.7Z"/>
      <path class="cls-71" d="M85.49,16.63c.52.03.99.44,1.4,1.22,7.81-6.84,16.52-13.79,26.19-16.15l.13-.33c8.23-1.15,16.57.68,23.9,4.68l-6.55,1.91c-10.35-4.57-21.68-2.53-31.14,3.58-4.07,2.63-7.6,5.71-11.11,9.14l-6.57-.59c1.16-1.43,2.43-2.39,3.74-3.46Z"/>
      <path class="cls-85" d="M225.02,71.62c-1.9-2.05-3.62-4.08-5.76-5.92-4.39-3.79-8.93-7.14-14.17-9.6-4.11-1.92-8-3.65-12.41-4.65l-15.12-3.44c-9.1-2.07-17.74-3.44-26.02-8.47-1.41-.86-2.64-1.94-3.17-3.35,5.33,3.15,11.04,5.24,17.1,6.63l13.22,3.03c11.2,2.57,20.81,4,31.23,9.82,6.87,3.84,11.78,8.89,15.1,15.95Z"/>
      <path class="cls-41" d="M214.1,57.12l-4.3-2.67c-4.25-11.15-10.87-17.12-21.74-21.69-8.05-3.39-16.63-4.74-25.35-4.54l-2.16-3.16c.18-.13.37-.26.57-.35s.39-.17.58-.17c12.41.1,26.99,2.74,37.25,10.02,7.37,5.23,11.84,12.63,15.11,21.01.09.22.1.48.1.74s-.03.54-.07.81Z"/>
      <path class="cls-74" d="M10.4,112.68l.21,1.58c-3.46,18.42,11.76,34.68,27.23,42.31l.99,1.1-.21,3.85c-2.46-.99-4.47-2.35-6.71-3.71-6.67-4.04-12.42-9.14-16.9-15.52-7.33-10.43-9.96-21.67-6.21-34.21l1.6,4.6Z"/>
      <path class="cls-87" d="M79.97,28.72l-4.39,5.04c-3.8,4.82-6.42,10.2-8.64,15.92l-4.25,10.95c-2.98,7.68-7.91,14.14-14.17,19.63v-5.1s.62-1.31.62-1.31c5.41-4.68,9.58-10.57,12-17.55l4.34-12.34c1.85-4.71,6.18-14.63,11.45-15.9.92-.22,2.82-.46,3.02.66Z"/>
      <path class="cls-79" d="M158.98,200.77c1.37.48,3.55-1.03,5.17-2.32,4.04-3.21,7.01-7.1,9.11-11.84l5.69-14.67c1.42-3.66,2.76-7.1,4.7-10.51,2.25-3.96,5.09-7.3,8.24-10.56l7.09-7.33c2.5-2.58,4.94-5.05,6.62-8.12.45,1.18.73,2.31.9,3.61-3.85,4.85-8.13,9.05-12.48,13.42l-4.32,4.34c-3.14,3.16-5.42,6.91-7.3,11l-3.77,10.12c-2.93,8.71-7.42,16.71-13.51,23.54l-7.5.9,1.33-1.58Z"/>
      <path class="cls-70" d="M51.04,42.02c-.06-.23-.11-.45-.13-.68s-.03-.44.04-.62c5.01-14.14,14.2-26.48,28.91-31.59.03-.01-.54.32-.46-.12,4.68-1.28,9.51-1.31,14.24-.62l-4.77,3.8c-1.68-.1-3.16-.09-4.73.3-8.01,1.39-15,5.46-20.48,11.39-4.47,4.83-7.5,11.07-9.68,17.26-1.01.41-1.92.68-2.93.88Z"/>
      <path class="cls-66" d="M230.74,96.44c2.67,7.53,2.94,16.23.3,23.65l-2.56-7.23c.54-6.13-.55-12.06-3.17-17.65-1.81-4.62-4.67-8.49-8.15-11.98l-8.57-8.59c.09-.24.29-.5.51-.44,3.69,2.51,7.54,5.22,11.1,8.06,4.95,3.96,8.44,7.86,10.28,14.12-.12-.21-.04-.2.26.05Z"/>
      <path class="cls-73" d="M162.63,10.98l5.25,3.19c-2.55-.1-4.94.36-7.54.67-14.33-6.77-26.47-3.38-39.67,4.11l-3.15-1.8c.02-.19.06-.41.22-.51,13.08-8.63,30.26-12.13,44.9-5.66Z"/>
      <path class="cls-94" d="M180.69,175.4l2.2-6.13c10.86-4.3,18.38-11.16,23.09-21.86l1.5-3.41.77,6.57-4.52,7.65c-2.56,4.34-6.16,7.71-10.32,10.61-3.92,2.83-8.15,4.87-12.72,6.56Z"/>
      <path class="cls-66" d="M42.89,145.29l.62,1.58c.13,5.26-.02,10.49-.43,15.69-.2,4.02.6,8.34,2.75,11.62,1.25,3.16,3.78,5.46,5.7,8.2l3.8,5.43-5.91-2.03c-8.49-7.53-10.57-17.29-9.62-28.46l1.22-14.29,1.86,2.25Z"/>
      <path class="cls-81" d="M147.65,14.25c.75.62,1.2,1.43,1.36,2.44,4.67,2.52,8.71,5.74,11.69,10.28,3.47,4.91,6.7,9.8,9.33,15.1-.01.18-.04.32-.12.37-1.35.74-6.67-2.89-7.22-4.52-2.93-4.68-6.19-9.06-9.8-13.14-3.53-4.65-8.01-8.5-12.89-11.97,1.42-.43,2.92-.76,4.28-.46l3.39,1.91Z"/>
      <path class="cls-54" d="M32.79,83.38l-.21-7.05c2.77-4.53,6.19-9.88,9.95-13.38,5.47-5.08,10.38-7.71,17.24-10.69l-2.49,6.29c-6.81,3.27-13.07,6.71-17.57,12.83-2.63,3.78-4.87,7.53-6.92,11.99Z"/>
      <path class="cls-61" d="M214.44,173.11c-.69.53-.85-.02-.54-.86.97-2.28,1.78-4.63,2.42-7.06.26-1.68.74-3.25,1.45-4.69.37-3.54.39-7.21-.35-10.82-.58-2.85-2.25-5.21-3.44-7.78l-2.41-5.2-1.69-4.07c-1.74-4.2-3.42-8.18-5.53-12.24-2.8-5.39-4.98-10.89-6.14-16.87-.56-2.85-.17-5.52.03-8.39.04-.52-.11-1.14.56-1.28.5,10.16,2.39,17.03,7.38,26.03,1.97,3.55,3.3,7.13,4.78,10.92l3.31,8.45,4.45,8.62c1.85,4.62,2.32,9.26,1.07,14.12-1.05,4.08-2.94,7.79-5.34,11.12Z"/>
      <path class="cls-45" d="M24.63,166.32c2.17,4.72,4.48,8.69,8.31,12.28,6.76,6.33,15.3,9.81,24.1,12.32l1.59,1,3.06,3.19c-9.46-1.58-18.26-4.95-26.03-10.38-7.98-5.58-13.23-12.56-15.7-22.12,1.69,1.36,3.08,2.54,4.68,3.71Z"/>
      <path class="cls-43" d="M55.11,198.7c6.77,6.86,18.85,6.7,27.97,5.62.25-.03.59.05.82.16l3.68,2.52c-12.18,1.69-25,.51-35.57-6.21-3.99-2.54-7.25-5.49-10.06-9.58-.14,2.72,1.03,4.88,1.98,7.29-1.3-.55-1.63-1.78-2.21-2.89-1.16-2.9-2.52-5.4-4.3-8.33,2.74,1.53,5.39,2.86,8.07,4.15,2.87,3.04,6.08,5.32,9.62,7.26Z"/>
      <path class="cls-50" d="M93.06,186.52l5.24,2.93-6.42,1.39c-4.86-2.88-10.06-4.8-15.63-5.96l-12.45-2.44c-3.97-.78-7.72-1.88-11.4-3.5-1.85-.82-3.46-1.86-4.85-3.26-.42-.42-.45-.84-.65-1.27l1.46.14c5.73,2.74,11.91,4.28,18.15,5.31l18.55,4.18c2.72.69,5.39,1.51,8,2.47Z"/>
      <path class="cls-85" d="M164.36,217.22c-.14-.04-.25-.28-.18-.3l.5-.18c11.19-7.29,19.7-17.99,24.34-30.53l3.32-11.36c.55-1.88,1.52-3.59,3.06-4.52-.88,6.04-2.03,11.85-4.13,17.57-4.82,13.14-13.9,24.05-26.92,29.33Z"/>
      <path class="cls-94" d="M140.4,201.54c9.93,6.36,24.81,5.3,34.06-1.57l5.2-1.82c-1.93,2.85-3.99,5.08-6.52,7.28-11.43,3.67-25.69,4.56-37.15.19l4.4-4.08Z"/>
      <path class="cls-60" d="M16.67,80.87c-6.71,12.91-4.1,27.74,3.57,39.98,2.26,3.62,4.91,6.76,7.66,9.84.09.09-.12.45-.25.37-2.02-1.15-3.55-2.5-4.98-4.33-6.67-8.52-10.85-18.81-11.91-29.61-.54-5.48-.25-10.73,1.13-15.88.98-2.09,1.99-4.23,3.47-5.97.37-.32.53-.3.87-.06,1.14.82,1.02,4.45.45,5.66Z"/>
      <path class="cls-99" d="M214.1,57.12c-1.49-4.11-3.46-7.97-5.78-11.87-2.76-4.63-6.53-8.24-11.03-11.21-9.97-6.58-24.96-9.03-36.73-8.98l-1.05-1.33c12.24-.4,24.78,1.07,35.58,7.03,11.22,6.19,17.4,14.77,20.44,27.24-.72-.04-.99-.59-1.43-.86Z"/>
      <path class="cls-50" d="M68.71,22.52c10.07-.17,20.55.05,30.43,3.31l.77.57-2.44,1.98c-4.82-.97-9.43-1.91-14.38-2.29-7.62-.59-15.02.61-22.26,3.23,1-1.96,2.44-3.24,3.67-4.86,1.02-1.34,2.53-2.4,4.21-1.95Z"/>
      <path class="cls-50" d="M98.29,37.02c.37-.02.71.17,1.03.58,6.75.55,13.86-2.35,20.01-5.16,5.73-2.89,11.48-5.73,17.25-8.53.7-.29,1.43-.52,2.17-.69.41-.1.73-.14,1.15-.14.04,0-.67.17-.54-.21.89-.07,2.18-.49,3.05-.14,1.34.55,2.3,1.47,3.7,2.45-7.69,1.44-14.42,4.29-21.37,7.46l-9.91,4.52c-6.42,2.49-13.23,3.08-20.07,2.68l3.53-2.82Z"/>
      <path class="cls-6" d="M230.74,96.44c-.17.44-.51.15-.5-.12-3.26-9.77-10.26-13.38-17.46-18.89l-2.83-2.16c-.44-.34-.84-.59-1.36-.62l-.23-.18c-2.02-1.98-4.13-4.22-4.72-7.06l-.2-2.61,5.45,3.69c3.2,2.17,6.12,4.36,8.82,7.16,5.77,5.99,10.24,12.94,13.03,20.79Z"/>
      <path class="cls-74" d="M48.19,159.77l-.06.28c5.64,2.94,11.28,5.66,16.9,8.18,2.55,1.27,10.14,7.78,10.42,10.26.02.2.01.4-.01.61l-4.77-.91c-6.68-7.28-15.22-10.44-24.47-13.76l.31-5.4,1.69.75Z"/>
      <path class="cls-74" d="M72.04,185.08c-.02.16-.02.3.05.4,3.22,4.26,6.44,8.52,10.15,12.51,3,3.12,6.59,5.22,10.27,7.37,3.04,1.77,7.01,3.39,10.25,4.42.44.17.82.19,1.23.59l-3.91,1.36c-9.49-3.2-17.88-8.7-24.57-16.13-3.05-3.39-5.33-7.01-7.06-11.23l3.58.7Z"/>
      <path class="cls-96" d="M32.87,62.2c.2-6.24.72-11.04,3.55-16.89,2.3-4.77,5.17-9.06,8.8-12.9.21-.07.21-.31-.04-.36.69-.89,1.75-1.49,2.82-2.07,2.03-1.32,4.06-2.32,6.38-3.34-1.52,2.37-2.72,4.62-3.82,7.26-9.86,5.86-14.65,15.98-17.18,26.97-.12.52-.23,1.02-.52,1.34Z"/>
      <path class="cls-6" d="M38.83,157.68c-3.09-1.58-6.16-3.22-9.14-5.2-2.12-1.41-3.85-3.02-5.74-4.75-5.04-4.61-9.2-9.95-11.95-16.25-2.72-6.23-3.03-12.51-1.6-18.8l1.08,2.41c-1,13.32,6.84,26.72,17.5,34.43,3.16,2.29,6.26,4.42,9.79,6.12.23.8.1,1.4.06,2.03Z"/>
      <path class="cls-45" d="M79.97,28.72c-1.97-.7-3.92-.13-5.51,1.27-3.6,3.18-6.95,9.78-8.58,14.45l-3.45,9.89c-2.03,5.8-4.61,11.26-8.72,15.85l-5.17,4.98.13-2.2c4.44-4.32,7.8-9.46,10.07-15.25l5.15-13.17c2.63-6.72,6.58-12.56,11.83-17.49,2.03-.18,3.87-.22,5.83,0-.35.85-1.12,1.14-1.58,1.67Z"/>
      <path class="cls-1" d="M40.64,107.18l-1.5-3.11c2.4-6.19,3.42-12.51,3.39-19.13-.03-5.51.21-10.78.72-16.2.9-1.01,1.88-1.71,2.91-2.41l.33,1.16c-.45,5.12-.65,10.28-.59,15.47-.31,7.86-1.27,15.83-4.25,23.17-.08.2-.25.38-.42.56s-.38.34-.59.49Z"/>
      <path class="cls-43" d="M78.22,199.78l-7.68,1.34c-2.38.05-4.75.33-7.12-.28-5.73-1.48-11.04-4.32-15.44-8.36,6.23,2.2,12.35,3.8,18.87,4.28l7.67-.68,3.7,3.7Z"/>
      <path class="cls-78" d="M12.53,140.47c-.05.49.12,1.01.51,1.57,2.56,13.23,14.03,22.7,25.88,28.28l.58.52.32,1.74c-3.76-1.56-7.5-2.97-11.15-4.97-8.17-4.46-14.36-11.51-16.07-20.79-1.15-6.23-5.24-11.63-11.73-12.74.86-.53,1.65-.3,2.55-.06,2.6.69,4.83,2.05,6.59,4.12l2.52,2.33Z"/>
      <path class="cls-53" d="M212.34,131.79l-2.09-5.82c3.9-5.43,6.89-11.26,9.01-17.58,1.31,1.96,2.2,3.78,3.03,5.89-2.62,6.23-5.99,11.94-9.95,17.5Z"/>
      <path class="cls-76" d="M29.61,102.11c-3.84,5.51-7.16,11.21-8.86,17.65l-2.85-5.54c-.26-.51.12-1.29.34-1.81,2.4-5.79,5.55-11.07,9.21-16.11l2.16,5.82Z"/>
      <path class="cls-6" d="M229.82,142.18c-.23-.51-.36-1.15-.26-1.83,1.52-10.5-.57-20.98-5.91-30.1-2.34-4-4.74-7.62-7.67-11.18-1.48-1.8-3.05-4.7-2.24-6.24,4.61,4.94,8.58,10.28,11.84,16.24,3.1,5.67,4.91,11.54,5.66,17.94.61,5.21.18,10.22-1.41,15.16Z"/>
      <path class="cls-85" d="M139.36,22.87l.54.21c-12.79,5.04-25.5,14.77-39.51,15.25-1.01.03-1.85-.35-2.11-1.31l2.02-1.89c6.34-.12,12.39-1.63,18.22-4.21l13.77-6.12c2.31-1.03,4.6-1.73,7.07-1.92Z"/>
      <path class="cls-74" d="M118.55,192.23c.58-.17.62.66,0,.51l-5.63,2.49c-8.8-2.23-17.98.27-26.47,2.98-1.07-.78-1.94-1.66-2.8-2.55l.58-.54,2.98-.49c5.56-1.54,11.2-2.84,16.92-3.91,4.89-.13,9.7.38,14.42,1.52Z"/>
      <path class="cls-86" d="M79.4,9.01c.04.12.37-.17.65.24-4.63,1.96-8.79,4.59-12.78,7.81-8.58,6.94-12.63,14.8-16.23,24.97-.84.17-1.57.59-2.48.54,4.43-16.03,14.63-29.1,30.84-33.56Z"/>
      <path class="cls-57" d="M93.06,186.52c0,.06-.11.19-.27.15l-7.85-2.11-18.53-4.17c-6.85-1.15-13.37-2.8-19.51-5.97-.43-.93-.76-1.82-.66-2.98,5.42,3.19,11.17,5.05,17.28,6.32l14.74,3.07c5.28,1.1,10.1,3.15,14.8,5.69Z"/>
      <path class="cls-61" d="M40.64,107.18c4.61-10.49,4.89-22.2,4.87-33.75,0-2.46.21-4.75.65-7.09.64-.72,1.37-1.26,2.32-1.76-1.59,9.73-.46,19.7-2.03,29.5-.86,5.38-2.19,10.42-4.65,15.36-.66-.71-.81-1.54-1.16-2.26Z"/>
      <path class="cls-46" d="M56.27,157.37l1.66,5.31-4.61-1.93c-3.68-9.28-8.79-15.56-15.48-22.69-1.92-2.05-3.65-4.06-5.38-6.26.17-1.12.69-1.92,1.13-2.79.34.24.68.48.99.75s.61.54.85.85c6.63,8.36,12.92,16.42,18.98,24.8l1.85,1.96Z"/>
      <path class="cls-3" d="M119.7,203.33c-.32,1.26-1.32,2.16-2.42,2.93-3.54,2.45-7.3,4.28-11.31,5.96-11.9,4.99-26.15,6.82-36.8-1.42l5.27.84c6.57,2.68,13.38,3.79,20.55,2.42,5-.96,9.6-2.34,14.07-4.82l10.63-5.91Z"/>
      <path class="cls-57" d="M169.46,173.79c0,.05.1.06.24.21-1.1,1.3-2.49,2.26-4.03,3.2l-9.9,6.06c-4.95,3.44-9.43,7.17-14.06,11.04l-9.11,7.63-7.8,5.28c-.12.13-.31.13-.27-.2,3.9-2.7,7.39-5.8,10.88-9.05l3.68-3.43c9.7-9.04,17.76-15.96,30.37-20.74Z"/>
      <path class="cls-55" d="M39.5,170.84c-.04.07-.18.16-.36.15-10.04-4.42-21.51-13.45-25.24-23.89l-1.72-6.22c-.09-.32.1-.54.36-.4l4.02,5.62c3.27,10.81,12.64,17.7,22.48,22.66l.47,2.09Z"/>
      <path class="cls-85" d="M206.51,98.84l-.56.12c-4.9-6.42-10.07-12.64-15.5-18.65-3.36-3.78-5.98-7.95-7.72-12.67-.03-.21.06-.39.2-.42l5.27,2.73c2.73,6.48,6.65,12.22,11.45,17.48,2.68,2.94,5.4,5.54,7.75,8.8-.11.94-.54,1.77-.88,2.62Z"/>
      <path class="cls-78" d="M41.45,46.13c.44.06.53.47.27,1.21,4.44-1.22,8.92-2.26,13.46-3.14,3.16-.72,5.6-2.43,8.08-4.37.56-.15,1.06-.65,1.87-.37-.95,1.83-1.71,3.52-2.51,5.48-8.53,3.38-17.87,3.78-25.92,8.67.69-2.39,1.64-4.44,2.82-6.51.34-.6,1.34-.72,1.93-.97Z"/>
      <path class="cls-89" d="M68.79,195.59c-4.41.59-5.31-.07-7.92-2.86l-2.05-2.19c-3.01-3.22-5.34-6.95-7.48-10.86l7.1,2.4c1.37,2.52,3.2,4.55,4.9,6.83,1.7,2.29,3.28,4.39,5.45,6.67Z"/>
      <path class="cls-66" d="M137.95,216.48c-2.6,1.41-5.07,2.37-7.8,3.26-2.49-.2-4.83-.76-7.26-1.42-3.62-1.12-6.96-2.56-10.35-4.35l4.38-2.37,6.76,2.55c4.56,1.72,9.29,2.35,14.28,2.33Z"/>
      <path class="cls-69" d="M58.62,191.92c-10.62-2.97-20.57-6.75-28.18-15.1-2.72-2.99-4.54-6.41-6.05-10.19-.18-.14-.08-.38.23-.31l1.87,1.38c5.64,11.45,17.77,18.09,29.74,21.5l2.39,2.72Z"/>
      <path class="cls-67" d="M150.86,23.93l-3.52.8c-5.35-3.95-11.06-6.98-17.65-9.1,2.32-.79,4.42-1.99,6.81-2.07,6.34,1.63,9.92,5.42,14.35,10.37Z"/>
      <path class="cls-60" d="M56.27,157.37c-.12.56-1.5-.59-2.43-1.85l-6.31-8.59-4.49-5.74c-3.19-4.07-6.37-7.99-9.44-12.18.32-.64.31-1.41.88-2.08,1.97,3.57,4.55,6.37,7.29,9.29,5.98,6.38,11.86,12.71,14.51,21.15Z"/>
      <path class="cls-27" d="M110.88,20.94c-.92,1.34-2.18,2.39-3.51,3.55-5.62,4.92-11.45,9.41-17.53,13.79-2.74,1.98-5.44,3.61-8.31,5.34-2.41,1.46-4.92,2.54-7.6,3.43-.29.1-.55-.16-.44-.34,13.61-6.69,23.8-17.69,36.06-26.38.52.13.9.37,1.33.62Z"/>
      <path class="cls-72" d="M162.63,10.98c-.39.46-.75-.03-1.23-.2-10.04-3.56-20.69-3.49-30.72.12-4.19,1.5-7.96,3.49-11.79,5.71-.46.27-.79.63-1.37.56-.55-.32-1.15-.46-1.66-1.09,15.35-9.18,30.35-13.62,46.77-5.08Z"/>
      <path class="cls-43" d="M113.06,198.26c.24-.26.48-.51.75-.73s.53-.43.83-.57c8.2-3.78,16.75-6.59,25.58-7.96l2.32-.92c.63.01,1.31-.18,2.06.07l-5.02,4.62c-8.32.36-16.05,3.34-23.54,6.85-1.16-.07-2.07-.78-2.97-1.35Z"/>
      <path class="cls-8" d="M174.46,199.97c.18.06.23.28.02.4-7.14,6.18-19.37,7-28.21,4.57-2.37-.65-4.37-1.65-5.87-3.4,2.52.84,4.89,1.29,7.47,1.53,9.65.91,17.48.09,26.59-3.1Z"/>
      <path class="cls-43" d="M216.34,140.91l-1.93-3.87c4.06-5.52,7.48-11.29,9.83-17.57.75,2.21,1.25,4.21,1.44,6.53-2.8,5.2-5.63,10.17-9.34,14.91Z"/>
      <path class="cls-70" d="M206.51,98.84c-.3.75-.42,1.47-.98,2.2-1.42-2.58-3.12-4.62-4.98-6.69l-4.71-5.24c-3.71-4.13-7.49-8.23-9.97-13.32-1.29-2.65-2.69-5.21-3.14-8.15.24.11.47.24.59.53,1.84,4.39,4.44,8.21,7.53,11.8l5.58,6.48,5.95,6.85,4.13,5.54Z"/>
      <path class="cls-71" d="M106.94,13.06c-.36.41-.93.54-1.7.39-1.76-.03-1.7.42.18,1.35l18.16,8.98c1.72.58,3.5.93,5.33,1.06.43.11.18.66-.23.43l-4.86,2.24-10.4-6.38c-5.22-2.9-10.49-5.29-16.26-6.7,1.64-1.41,3.24-2.34,5.08-3.38,1.66.52,3.25,1.11,4.69,2.01Z"/>
      <path class="cls-98" d="M15.57,108c-.76-2.03-1.06-4.09-1.31-6.31l2.91-4.98c1.99-3.4,4.06-6.57,6.66-9.73.69,1.04,1.27,2.19,1.65,3.46l-4.57,7.15c-2.07,3.29-3.83,6.51-5.35,10.42Z"/>
      <path class="cls-7" d="M35.49,68.6c-.71,1.95-1.68,3.57-2.85,5.17.29-5.06.96-9.74,2.22-14.53.56-1.28.53-3.2,1.63-4.12,2.12-1.78,4.78-2.62,7.41-3.68-2.27,3.74-4.72,7.09-6.2,11.12l-2.21,6.05Z"/>
      <path class="cls-104" d="M58.22,40.16c-.65.55-2.03.44-2.88.58.32-1.82,1.16-3.15,1.8-4.83,4.37-2.36,8.32-5.14,12.44-7.87,1.14-.75,2.82-.51,4.25-.66l-4.43,5.15c-1.1,1.28-2.9,1.83-4.31,2.72-2.46,1.54-4.69,3.03-6.87,4.9Z"/>
      <path class="cls-96" d="M133.15,29.96l.32.05c5.2-.62,10.3-1.71,15.29-3.27.87-.67,1.79-1.28,2.74-1.82l3.05,4.04-10.53,2.34c-5.8,1.29-11.5,1.88-17.57,1.77l6.7-3.09Z"/>
      <path class="cls-85" d="M106.94,13.06c2.21.53,4.25,1.78,6.38,2.98l15.6,8.8c-2.14.57-4.22.1-6.28-.92l-17.1-8.48c-1.02-.5-1.91-1.06-2.74-2.05,1.29-.44,2.88-.64,4.15-.33Z"/>
      <path class="cls-50" d="M182.42,45.53l-4.62-.91c-1.15-3.48-2.25-6.84-4.16-9.94l-3.78-5.2c3.91.14,4.86-.03,6.54,3.47,2.51,3.91,4.42,7.86,6.01,12.59Z"/>
      <path class="cls-72" d="M113.21,1.37c.07.04.32.23.28.25l-9.21,4.06c-6.16,2.71-11.89,8.67-17.41,12.83-.66-.44-1.05-1.19-1.38-1.88.33-.7,1-1.01,1.57-1.52,7.55-6.69,15.98-12.32,26.15-13.74Z"/>
      <path class="cls-44" d="M155.88,202.53c-3.93-.1-7.69-.03-11.53-1.15,5.65-1.63,10.51-3.82,14.91-7.27l4.09-.11c-2.38,3.14-4.75,5.84-7.47,8.53Z"/>
      <path class="cls-69" d="M45.84,174.19c-.04.15-.27.3-.3.23l-.2-.45c-3.14-4.39-2.97-9.55-2.58-14.98.33-4.65.47-9.13.14-13.68.97,1.18,2.03,2.26,2.92,3.79l-.62,14.61c-.15,3.6-.66,7.17.65,10.49Z"/>
      <path class="cls-99" d="M99.91,26.41c-5.17-1.43-10.35-2.45-15.75-3.01-5.72-.59-12.24-.01-15.45-.88,11.68-2.88,21.99-.76,33.48,2.08l-2.28,1.81Z"/>
      <path class="cls-61" d="M72.04,185.08c.49.1,1.38-.02,1.81.39,7.69,10.65,16.54,19.49,28.92,24.31-.02.09-.32.31-.56.21l-7.7-3.07c-6.44-2.97-11.99-7.1-16.32-12.7l-6.92-8.95c.31-.19.5-.17.77-.19Z"/>
      <path class="cls-10" d="M118.75,202.49c-2.78,2.34-4.15,2-7.39.39-4.03-2.01-7.63-4.41-11.44-6.95l6.6-.52c3.87,2.77,7.92,4.79,12.23,7.08Z"/>
      <path class="cls-33" d="M142.53,188.08c-.44.84-1.57,1.33-2.65,1.53-3.87.7-7.54,1.39-11.32,2.56-5.36,1.67-10.43,3.72-15.51,6.09-.68-.42-1.53-.58-1.99-1.29l9.07-3.86c7.12-3.42,14.58-5.16,22.4-5.04Z"/>
      <path class="cls-58" d="M14.11,99.67c-.37-1.78-.18-3.35-.08-5.05.67-2.15,1.49-4.14,2.55-6.1,1.5-2.62,2.89-5.17,4.7-7.62l2.1,4.96c-2.26,2.68-4.18,5.57-6.07,8.62l-3.2,5.18Z"/>
      <path class="cls-95" d="M197.13,175.75c2.92-4.41,5.75-8.62,7.79-13.45l3.33-7.62c.47,4.08-.02,7.96-.67,12.11-3,3.4-6.08,6.67-10.44,8.96Z"/>
      <path class="cls-58" d="M140.37,215.05c-5.08.92-10.05-.07-14.97-1.47l3.88-2.76c5.42.99,10.76,1.18,16.41.8l-5.31,3.43Z"/>
      <path class="cls-41" d="M117.55,13.97c-1.82-.43-4,.63-5.59-.05l-7.54-3.21c5.23-1.02,10.14-1.38,15.28-1.2,1.64.06,3.17.09,4.87.65l-7.03,3.8Z"/>
      <path class="cls-58" d="M225.94,133.06c.04,2.64-4.44,9.9-6.84,13.03l-2.21-4.31c3.56-4.51,6.3-9.19,8.96-14.03l.09,5.31Z"/>
      <path class="cls-54" d="M166.83,188.74l-2.56,4.11c-4.88.54-9.64.43-14.57-.07,1.75-1.41,3.3-2.92,5.19-3.83l5.89.13,6.06-.34Z"/>
      <path class="cls-56" d="M149.01,16.69l-.79-.43c-.14-.08-.08-.84-.57-2.01,9.88,3.51,14.97.65,19.39.96,4.89.35,9.86,2.67,14.99,2.9,1.5.29,3.03.2,4.3,1.19-3.86.07-7.35-.47-10.94-1.3-4.27-.99-8.38-1.18-12.73-.54-4.54.67-9.03.36-13.34-1.08-.19-.01-.32.17-.31.3Z"/>
      <path class="cls-43" d="M73.88,195.23c-1,.02-2.26.6-3.24.24-4.16-2.4-6.75-7.9-8.86-12.45l5.08,1.08,3.04,5.34c1.19,2.1,2.43,4.03,3.99,5.8Z"/>
      <path class="cls-23" d="M207.09,141.93c-1.9,5.46-4.95,11.7-9.08,16.05l.28-8.31c2.98-2.99,5.74-5.91,8.38-9.3.29.31.6,1.02.42,1.55Z"/>
      <path class="cls-69" d="M118.55,192.23c-.17.17-.4.25-.66.21l-7.8-1.11c-3.64-.52-7.28-.11-10.85.8l-11.28,2.85c-1.48.37-2.89.67-4.31.68l-1.07-1.11,9.62-2.69c8.68-2.43,17.81-3.05,26.35.37Z"/>
      <path class="cls-54" d="M194.39,143.22c-.23-.48-.44-.98-.44-1.51-.07-5.69,1.9-15.55,4.71-20.64l.62-.13c.4.86,1.43,2.06,1.41,3.1-1.05,2.63-2.01,5.13-2.33,7.92l-.98,8.62-2.98,2.65Z"/>
      <path class="cls-35" d="M108.54,19.69l-5.31,4.08-10.46-2.43c3.51-1.71,6.86-2.91,10.44-4.01l5.33,2.36Z"/>
      <path class="cls-6" d="M25.8,80.91c-1.09-1.66-2.4-3.12-3.24-5.03-.97-2.21-1.77-4.49-2.22-6.88l-.16-3.71c.41-4.57,1.21-8.97,2.97-13.35l2.83-7.05c.07,1.02,0,2.06-.37,3-4.16,10.47-5.12,20.54.15,30.81.33.65.03,1.6.04,2.2Z"/>
      <path class="cls-67" d="M84.24,38.97c-4.45.21-8.43.95-12.46,2.7l2.86-4.97c4.87-1.08,9.65-1.86,14.82-1.7l-5.22,3.96Z"/>
      <path class="cls-88" d="M203.66,51.45c-1.74-.66-3.72-1-5.2-2.11l-3.58-4.26-4.04-9.01c3.5,2.13,6.24,5.17,8.7,8.54l4.12,6.84Z"/>
      <path class="cls-22" d="M211.52,122.12c0-4.83-.57-9.36-2.09-13.87l2.25-4.85c1.63,4.11,2.69,8.25,3.49,12.53l-3.64,6.18Z"/>
      <path class="cls-23" d="M164.26,187.37c-2.57.98-5.09.89-7.81.33,2.53-2.05,5.22-3.43,7.98-4.94l7.02-3.5c-.53,2.31-1.6,4.41-2.79,6.42l-4.4,1.69Z"/>
      <path class="cls-12" d="M182.52,186.84l-7.15,1.65,1.9-3.89c3.91-1.86,7.49-3.91,11.03-6.57-.36,2.3-.94,4.31-1.77,6.42-1.29.81-2.42,2.03-4.01,2.39Z"/>
      <path class="cls-94" d="M28.39,124.62c-1.67-4.15-2.88-8.12-3.5-12.5,1.02-2.14,2.04-4.11,3.54-6.12-.04,4.95.72,9.4,2.13,13.91l-2.17,4.72Z"/>
      <path class="cls-86" d="M63.27,39.83c-1.9,3.37-7.63,5.05-11.71,5.71-3.14.51-6.07,1.13-9.06,2.24-.45.17-1.25.17-1.39-.34l.36-1.31c4.29-1.77,8.66-2.88,13.17-4.05l8.65-2.25Z"/>
      <path class="cls-52" d="M48.19,159.77l10.77,4.5c7.9,3.3,14.25,8.32,19.29,15.32-1.11.03-1.9-.32-2.81-.5-2.73-4.12-6.2-7.85-10.65-10.4l-6.29-2.91c-3.78-1.75-7.56-3.34-10.99-5.8.15-.26.41-.24.68-.2Z"/>
      <path class="cls-39" d="M158.94,36.58l-11.01-1.82-3.94-2.33,7.13-1.67,4.92.86c1.21,1.5,2.11,3.1,2.9,4.97Z"/>
      <path class="cls-8" d="M83.91,204.48c-.13.27-.38.29-.74.36-7.98,1.41-17.46.7-24.75-2.87-1.65-.81-3.79-2.47-3.31-3.26,7.96,4.38,18.12,5.71,27.16,4.81.58-.06,1.24.7,1.63.97Z"/>
      <path class="cls-6" d="M199.28,120.94l-1.99,4.68c-1.79,5.8-2.63,11.67-2.89,17.6-.52.47-.93,1.12-1.71,1.39-.21-5.39.67-10.49,1.7-15.64-1.18-.77.29-3.16.96-4.14l2.76-6.41,1.18,2.52Z"/>
      <path class="cls-58" d="M33.32,87.29c-.62-1.11-.25-2.27.32-3.41,2.38-4.75,4.73-9.4,8.34-13.49l-.34,7.63-8.32,9.27Z"/>
      <path class="cls-19" d="M203.41,111.77v-.62c2.58-4.64,4.18-9.37,5.52-14.52.08-.31.28-.54.56-.7l2.8,3.25c-2.2,5.46-4.76,10.66-7.51,15.8l-1.37-3.21Z"/>
      <path class="cls-36" d="M157.3,194.3c-4.84,3.57-10.28,5.61-16.22,6.58l4.33-4.16,3.2-2.89,8.69.47Z"/>
      <path class="cls-28" d="M199.7,69.43l-.78-1.11c-.77-3.74-1.61-7.45-2.5-11.13,0-.45.27-.57.8-.34l3.63,1.22c1.31,4.34,2.06,8.87,1.87,13.6l-3.02-2.23Z"/>
      <path class="cls-7" d="M188.63,176.55c-3.39,2.65-6.93,4.74-10.85,6.59l2.33-6.43,9.22-3.99-.7,3.83Z"/>
      <path class="cls-71" d="M193.21,43.79c-2.46-1.93-4.75-3.92-7.55-5.46-1.54-2.48-3.1-4.76-5-7.01,2.7.61,5.09,1.52,7.61,2.58,1.87,3.19,3.69,6.21,4.94,9.9Z"/>
      <path class="cls-21" d="M193.92,183.39l1.25-5.11c2.9-1.75,5.67-3.37,8.08-5.61l3.16-3.02c-1.36,3.83-3.63,6.96-5.98,10.09l-6.5,3.65Z"/>
      <path class="cls-99" d="M190.76,47.52c-1.46-.96-2.8-2.09-4.01-3.38-2.4-1.71-4.45-3.66-6.13-5.85l-.69-1.57c3.2,1.09,5.93,2.79,8.65,4.75,3.01,2.17,5.77,4.48,8.01,7.58l-5.82-1.52Z"/>
      <path class="cls-101" d="M194.78,58.78c1.05,2.07,1.37,4.45,1.64,6.9-4.31-2.9-7.24-6.92-9.81-11.36l5.82,1.11,2.35,3.35Z"/>
      <path class="cls-18" d="M92.1,28.37c-4.82,1.31-9.09,2.48-12.07,6.42l-4.16.45c2.24-3.12,4.73-5.64,7.45-8.19l8.78,1.31Z"/>
      <path class="cls-12" d="M60.35,50.87c-3.16,1.29-5.98,2.53-8.96,4.31l1.27-6.25,9.33-2.55-1.64,4.48Z"/>
      <path class="cls-24" d="M26.76,63.64l-3.56,2.4c.06-2.37-.4-4.99.57-7.26,1.25-2.92,3.75-5.12,6.22-7.24-1.2,4.24-2.44,7.99-3.23,12.1Z"/>
      <path class="cls-42" d="M130.5,24.54l-4.42-2.4,7.86-3.84c2.14.97,4.33,1.74,6.33,3.33-3.51.58-6.55,1.42-9.77,2.92Z"/>
      <path class="cls-36" d="M145.61,210.54c-4.95.33-9.72.34-14.78-.56l4.16-3.65c4.39,1.75,8.9,2.63,13.6,3.03-.81,1.05-1.85,1.11-2.98,1.18Z"/>
      <path class="cls-7" d="M195.65,175.77l1.29-8.13c.11-.72,1.19-1.25,1.67-1.71,3.3-3.13,5.6-6.7,8.21-10.46-1.55,4.43-3.63,8.3-5.82,12.31-1.54,2.82-3.28,5.3-5.35,7.99Z"/>
      <path class="cls-94" d="M36.43,115.81l-.06.81c-2.24,4.31-4.16,8.76-5.77,13.35l-.93,1.24-2.13-2.36c2.36-5.41,4.78-10.59,7.59-15.72l1.3,2.67Z"/>
      <path class="cls-19" d="M19.74,136.79c.05.68.01,1.26-.12,1.74-2.15-3.15-4.33-6.61-5.27-10.45-.47-1.91.25-3.98.71-5.93.98,2.34,3.1,4.07,3.7,6.29.73,2.7-.07,5.66.98,8.35Z"/>
      <path class="cls-66" d="M191.96,189.35l1.44-4.61c3.9-1.7,7.32-3.9,10.86-6.45-1.09,2.93-2.86,5.27-4.79,7.58-2.43,1.29-4.66,2.52-7.51,3.47Z"/>
      <path class="cls-104" d="M209.7,124.73l-4.41-8.54,3.48-6.5c1.38,4.28,1.91,8.64,1.64,13.18-.04.68.12,1.36-.71,1.86Z"/>
      <path class="cls-26" d="M216.65,84.27c1.81,4,3.97,10.27,3.43,14.64l-4.6-5.86-.53-10.49c.56.56,1.38.99,1.7,1.71Z"/>
      <path class="cls-47" d="M34.66,111.87l-3.46,6.49c-1.49-5.01-2.36-10.05-1.25-15.29l4.72,8.8Z"/>
      <path class="cls-43" d="M183.68,191.55c-3.61.94-7.13,1.45-10.92,1.51l2.03-3.59c3.7-.31,7.09-1.24,10.76-2.51l-1.87,4.59Z"/>
      <path class="cls-10" d="M214.03,83.82l.46,7.99c-1.49-1.22-2.51-2.43-3.63-3.84.02-3.84-.9-7.33-1.7-11.25l4.24,4.04c.63.6.58,2.11.64,3.06Z"/>
      <path class="cls-23" d="M46.24,184.25c-2.72-1-5.25-2.73-7.75-4.45l-2.74-7.78c1.66.49,3.08,1.14,4.59,2.01,1.15,3.77,3.25,6.77,5.9,10.21Z"/>
      <path class="cls-51" d="M224.98,105.99l-3.87-5.69.99-9.17c1.49,2.81,3.2,5.56,3.79,8.73.38,2.05-.71,4.08-.91,6.13Z"/>
      <path class="cls-56" d="M191.94,163.22l.54-7.81,4.65-4.58-.32,8.34c-1.41,1.52-2.82,2.82-4.87,4.05Z"/>
      <path class="cls-90" d="M170.62,22.79c-4.13-.05-8.02-.33-12.1-.05-1.28-1.61-2.65-2.58-4.11-4.01l6.11.08c3.55.69,6.76,2.22,10.11,3.98Z"/>
      <path class="cls-2" d="M200.31,86.62l-4.07-4.82,1.16-6.56c1.61,1.15,3.14,2.05,4.42,3.51l-1.5,7.88Z"/>
      <polygon class="cls-19" points="133.26 198.42 129.14 202.15 121.19 198.54 127.58 196.04 133.26 198.42"/>
      <path class="cls-12" d="M26.87,127.89c-1.97-2.24-3.67-4.42-5.24-6.86.41-2.51,1.18-4.78,2.47-7.18.88,4.12,2,7.99,3.66,11.84l-.89,2.2Z"/>
      <path class="cls-80" d="M90.9,34.03c-3.09-.15-6,.18-9.2.43,2.11-2.4,4.93-3.49,7.83-4.31,2.18-.5,4.24-1.2,6.7-.72l-5.33,4.6Z"/>
      <path class="cls-21" d="M17.24,112.22c-1.88-2.05-.72-4.17.65-6.95,1.77-3.59,3.64-6.94,6.11-10.25-.29,2.02-.2,4.21-1.03,5.91-1.84,3.79-4.21,7.05-5.73,11.29Z"/>
      <path class="cls-46" d="M50.1,55.98c-1.98,1.02-3.47,2.26-5.27,3.6l1.83-9.03c1.57-.58,3.09-.95,4.92-1.29l-1.47,6.72Z"/>
      <path class="cls-17" d="M170.02,42.07c.18.19.55.58.24.9l-7.93-2.12-3.4-6.4c-1.81-3.41-3.78-6.67-6.06-9.67.31-.02.56.07.79.31,3.49,3.74,6.36,7.77,9.12,12.05,1.56,2.42,4.94,5.3,7.24,4.92Z"/>
      <path class="cls-7" d="M218.27,107.14c-.39,2.44-1.24,4.66-2.36,6.93-.89-4.13-2.09-7.97-3.57-11.91-.17-.57.41-1.47.75-1.92l3,3.72c.7.87,1.83,1.89,2.17,3.18Z"/>
      <path class="cls-32" d="M85.78,192.52l-4.09,1.23c-2.19-2.37-4.08-4.88-5.77-7.88l6.88,1.92,2.97,4.74Z"/>
      <path class="cls-71" d="M92.35,213.34c-2.68.48-5.08.38-7.62-.02l-6.39-4.56,5.98-.32,8.03,4.89Z"/>
      <path class="cls-23" d="M37.02,67.77c.42-2.75,1.62-4.97,2.71-7.36,1.73-3.15,3.45-6.16,5.66-9.11l-1.76,9.27c-2.56,2.18-4.5,4.54-6.62,7.2Z"/>
      <path class="cls-47" d="M36.29,152.96c-2.47-1.04-4.48-2.64-6.62-4.13-.35-2.62-.53-5.09.07-7.74,2.95,3.52,5.08,7.33,6.56,11.87Z"/>
      <path class="cls-12" d="M110.82,218.56l-3.88.29c-1.04.08-2.04-.81-3.07-1.3l7.54-3.14,6.89,3.37c-2.58.7-4.96.88-7.48.77Z"/>
      <path class="cls-100" d="M216.04,132.88c.2-1.85,0-3.79.57-5.45,2.11-3.92,4.48-7.52,6.13-11.73.46.78,1.11,1.84.81,2.69-1.83,5.23-4.54,9.93-7.51,14.5Z"/>
      <path class="cls-13" d="M34.13,164.9c-2.21-1.4-4.65-2.79-6.53-4.84-1.47-1.6-2.08-3.74-2.8-5.85,2.82,1.9,5.35,3.9,8.41,5.49l.92,5.2Z"/>
      <path class="cls-31" d="M93.52,203.77l1.06-.63c3.3-.4,6.52-1.27,9.6-2.5l1.23.06,3.38,2.07c-3.87,1.38-7.73,2.42-11.81,3.16-1.34-.63-2.44-1.35-3.46-2.16Z"/>
      <path class="cls-92" d="M24.14,144.06l-2.15-3.77c-1.47-3.24-2.04-6.77-1.95-10.45l4.58,5.26c-.53,3-.4,5.69-.48,8.95Z"/>
      <path class="cls-67" d="M179.87,24.17l-7.4-1.15c-1.63-1.82-3.48-3.22-5.57-4.81,2.41-.41,4.59-.02,6.73.46,2.14,1.87,4.3,3.34,6.24,5.51Z"/>
      <path class="cls-5" d="M29.66,131.21c1.59-5.41,3.98-10.54,6.76-15.4l.96,2.86c-2.59,4.48-4.58,9.03-6.37,13.93-.56-.38-.92-.9-1.35-1.38Z"/>
      <path class="cls-35" d="M74.87,44.95l-6.07,2.91c.6-1.56,1.22-2.97,2.06-4.51,3.46-1.81,7.18-2.96,11.33-3.14-2.16,2.06-4.77,3.16-7.32,4.74Z"/>
      <path class="cls-12" d="M48.86,71.35c-.18-2.67.41-5.12.92-7.68,2.14-1.24,4.04-2.46,6.58-3.45-1.8,4.13-4.34,7.68-7.5,11.13Z"/>
      <path class="cls-26" d="M39.95,132.66c-2.25-2.25-3.67-4.61-5.02-7.08l2.95-5.64c1.25,4.37,2,8.47,2.08,12.72Z"/>
      <path class="cls-35" d="M205.13,102.1l-3.09,5.87c-1.24-4.26-1.86-8.3-2.09-12.68,2.05,2.18,3.5,4.33,5.18,6.81Z"/>
      <path class="cls-11" d="M146.19,44.54c-1.8-.52-3.26-1.57-5.01-2.29-4.16-1.72-8.35-2.9-12.6-4.35l-7.13-2.43,3.54-1.94c1.37,1.81,3.04,2.92,5.17,3.57,5.64,1.72,11.06,3.94,16.03,7.45Z"/>
      <path class="cls-97" d="M210.39,68.24l-7.12-4.66-1.19-4.91c1.91.58,3.43,1.4,5.02,2.47l3.28,7.1Z"/>
      <path class="cls-16" d="M151.5,24.91c-.95,1.31-2.04,2.27-3.58,2.72-4.71,1.37-9.43,2.26-14.34,2.73-.32.03-.52-.21-.44-.4,3.17-1.46,6.48-2.22,9.9-3.07,2.83-.7,5.5-1.59,8.45-1.98Z"/>
      <path class="cls-92" d="M46.6,43.35c-2.14.49-3.89,1.21-5.98,2.07,2.27-3.92,5.13-7.23,9.09-9.66-.78,2.06-1.41,3.98-1.84,6.11-.14.7-.41,1.3-1.26,1.48Z"/>
      <path class="cls-71" d="M175,39.66c-2.02-.73-4.18-.79-5.88-1.78-1.33-1.38-2.13-3.31-3.15-4.94,6.61.94,6.24.7,9.03,6.72Z"/>
      <path class="cls-50" d="M41.5,81.49c-.32,1.69-.98,2.8-1.87,4.27-1.27,2.1-3.14,4.8-4.67,6.74h-.64c-.49-1.16-.7-2.31-.89-3.6l4.22-4.92,3.89-4.37c.2.7-.05,1.28-.04,1.87Z"/>
      <polygon class="cls-9" points="186.06 61.13 180.56 57.33 179.6 52.96 184.49 53.92 186.06 61.13"/>
      <path class="cls-94" d="M28.49,147.97l-3.21-2.94c-.21-2.88-.14-5.66.28-8.61l3.36,3.58c-.55,2.57-.55,4.99-.44,7.97Z"/>
      <polygon class="cls-89" points="132.57 17.8 125.17 21.53 121.65 19.52 128.09 16.28 132.57 17.8"/>
      <path class="cls-6" d="M209.49,95.93c-.44,4.33-2.66,9.43-4.73,13.62-.42.85-.55,1.86-1.35,2.22-.29-.68-.81-1.65-.79-2.5,2.49-4.49,4.66-8.96,6.25-13.91.4.05.46.39.62.57Z"/>
      <polygon class="cls-84" points="62.89 176.54 58.05 175.39 55.61 169.21 61.19 171.98 62.89 176.54"/>
      <path class="cls-70" d="M109.14,207.84c-1.04,1.05-2.37,1.21-3.61,1.92l-7.07-3.03,5.89-1.54,4.8,2.65Z"/>
      <path class="cls-8" d="M105.41,200.69c-3.79,1.62-7.77,2.73-11.89,3.08-.65-.52-1.62-.74-2.11-1.55,4.24-.71,8.28-1.34,12.24-2.65l1.76,1.12Z"/>
      <path class="cls-47" d="M52.31,173.21c-2.37-.62-4.32-1.79-6.21-3.12-.17-1.5-.08-2.8.11-4.36,1.16.26,2.14.59,3.13,1.1l2.98,6.39Z"/>
      <path class="cls-99" d="M34.33,92.5l3.06-4.34c1.2-1.82,2.49-3.49,3.4-5.49.21-.46.26-.97.71-1.17.02,1.6.14,3.22-.06,4.95-2.25,2.73-4.49,5.32-6.41,8.22-.53-.73-.43-1.51-.71-2.16Z"/>
      <path class="cls-54" d="M101.29,16.87c-3.77,1.01-10.13,4.35-11.48,4.18-.58-.07,4-4.19,6.15-5.79,1.84.39,3.59.76,5.33,1.61Z"/>
      <path class="cls-75" d="M20.31,57.7c-3.85-1.63-5.24-4.99-4.91-8.86,3.4,1.74,5.38,4.91,4.91,8.86Z"/>
      <path class="cls-19" d="M217.71,74.17l-4.82-4.16-.87-5.44c2.12,1.34,3.71,3.22,5.23,5.23l.46,4.37Z"/>
      <path class="cls-47" d="M98.05,212.13c-.99.58-2.46.92-3.67.91-3.02-1.18-5.64-2.92-8.45-4.72l3.17-.44,8.95,4.25Z"/>
      <path class="cls-75" d="M185.71,12.25c-1.29,3.24-5.29,4.93-8.83,4.2,1.68-3.37,5.19-4.86,8.83-4.2Z"/>
      <path class="cls-102" d="M51.73,159.88c-1.84-.26-3.36-1.37-5.25-2.01l.39-6.93c2.03,2.66,3.44,5.5,4.86,8.94Z"/>
      <path class="cls-70" d="M108.98,28.29l1.02-.28c2.34.66,4.72,1.16,7.12,1.49l.86.6c-1.42.45-2.93,1.55-4.58,1.61-2.47.09-4.75-.93-7.18-1.3l2.75-2.12Z"/>
      <path class="cls-93" d="M16.67,80.87l-.17-3.67c-.04-.82-.45-1.72-1.14-1.94l3.79-4.46c.21,1.72.34,3.29.87,5.05-1.33,1.57-2.28,3.32-3.35,5.02Z"/>
      <path class="cls-49" d="M102.21,198.9c-4.98,1.91-4.83,1.15-9.13-1.47l5.14-1.33,3.99,2.8Z"/>
      <path class="cls-75" d="M237.87,102.08c-3.03-1.28-5.04-4.68-4.65-8.3,3.07,1.49,4.84,4.44,4.65,8.3Z"/>
      <path class="cls-75" d="M6.58,134.17c-3.39-1.42-4.75-4.96-4.34-8.43,3.11,1.79,4.76,4.98,4.34,8.43Z"/>
      <path class="cls-75" d="M189.35,130.92c-2.47-3.02-3.01-5.9-1.55-9.38,2.57,2.38,3.08,6.13,1.55,9.38Z"/>
      <path class="cls-75" d="M147.77,182.63c-2.98,1.51-6.68,1.15-9.42-1.18,1.5-.79,3.02-1.06,4.61-1.01,1.68.4,3.2.88,4.81,2.19Z"/>
      <path class="cls-75" d="M55.41,88.52c-1.12,3.16-4.09,5.19-7.59,5.4.94-3.16,3.86-5.4,7.59-5.4Z"/>
      <path class="cls-87" d="M117.99,30.1c-3.06-.21-6.02-1.07-9.01-1.8.66-.51,1.27-1.14,2.13-1.58,3.22.9,6.3,1.62,9.67,2.06-.95.5-1.8,1-2.79,1.32Z"/>
      <path class="cls-38" d="M167.12,200.92l4.82-6.75,4.69-.21c-3.08,2.62-5.77,5.13-9.51,6.96Z"/>
      <path class="cls-66" d="M197.23,56.85c-.33.17-.37.67-.21.97.57,1.03.6,2.06.84,3.14l1.85,8.47-2.23-1.54c.11-4.13-.92-7.93-2.46-11.62.91-.1,1.54.34,2.21.57Z"/>
      <path class="cls-89" d="M191.62,64.29l-4.41-2.65-1.22-6.37c2.6,4.72,5.77,8.54,10.22,11.56-1.8-.51-3.07-1.62-4.59-2.53Z"/>
      <path class="cls-63" d="M56.71,174.92c-1.23.11-1.92-.64-3-.97l-2.8-6.52c.97.21,2.52.55,3.31,1.29l2.49,6.2Z"/>
      <path class="cls-42" d="M38.88,167.34c-1.38-.38-2.44-1.11-3.59-1.89l-.94-4.91,4.25,2.15.28,4.65Z"/>
      <path class="cls-7" d="M122.16,27.84c-3.44-.21-6.51-.94-9.91-1.8.96-1.06,2.08-1.63,3.34-2.44,2.19,1.39,4.41,2.42,6.56,4.24Z"/>
      <path class="cls-48" d="M43.79,117.73l-.97-2.68c.62-2.81,1.87-5.4,3.27-7.98,1.94-3.05,2.87-6.24,4.12-9.75-.38,4.23-2.35,7.82-4.03,11.61-1.26,2.86-1.86,5.87-2.4,8.8Z"/>
      <path class="cls-82" d="M190.76,47.52c-1.05-.27-1.8-.47-2.61-1.2-1.73-1.58-3.79-2.65-5.83-3.83l-1.71-4.2c1.03.29,1.53,1.32,2.34,1.99,2.81,2.33,5.61,4.5,7.8,7.24Z"/>
      <polygon class="cls-71" points="95.95 200.41 90.16 201.35 87.25 199.06 91.66 197.69 95.95 200.41"/>
      <path class="cls-75" d="M138.99,42.51c3.26.99,4.98,4.11,5.07,7.44-3.11-1.2-4.99-4.14-5.07-7.44Z"/>
      <path class="cls-7" d="M183.65,37.04l-4.85-2.03-2.87-4.73c.94.14,2.27.07,2.95.72,1.87,1.78,3.29,3.85,4.77,6.03Z"/>
      <polygon class="cls-83" points="176.46 44.19 171.72 43.22 170.1 39.6 175.51 40.9 176.46 44.19"/>
      <path class="cls-63" d="M110.42,207.31l-4.43-2.49,4.01-1.42,4.34,1.65c-1.2.99-2.49,1.54-3.92,2.26Z"/>
      <path class="cls-94" d="M214.44,173.11c-.61.84-1.15,1.69-2.13,2.37l1.14-3.53c.16-.51,1.12-.81.92-1.76-.21-1,.65-1.97.7-2.86.06-1.09-.33-2.08.45-3.1.59-.76.66-1.72,1.01-2.68.26-.35,1.17-.56,1.25-1.06-.45,4.24-2,8.3-3.57,12.4-.07.18.12.28.24.22Z"/>
      <path class="cls-20" d="M38.16,102.28c-1.11-2.17-2.14-4.11-2.7-6.41.41-1.3,1.51-2.69,2.68-3.71l.02,10.13Z"/>
      <path class="cls-15" d="M204.78,132.28c-.83,1.27-1.68,2.31-2.87,3.48l-.22-9.83c1.31,1.92,2.07,3.97,3.08,6.35Z"/>
      <path class="cls-14" d="M134.26,197.71l-4.98-2.09c3.03-.94,5.84-1.58,8.92-1.73l-3.94,3.82Z"/>
      <path class="cls-62" d="M40.11,141.99l-.36,3.44c-1.54-3.06-3.31-5.6-5.18-8.34-.87-1.27-2.4-2.11-2.53-3.99l4.31,4.86,3.77,4.03Z"/>
      <path class="cls-59" d="M170.92,32.79l-5.77-1.1-1.59-2.46c1.79-.17,3.31-.12,4.93.11l2.43,3.45Z"/>
      <path class="cls-75" d="M42.71,198.86c2.81,2.3,3.22,4.58,2.39,8.01-2.34-2.36-3.38-4.78-2.39-8.01Z"/>
      <path class="cls-29" d="M23.56,153.35l1.97,5.14c-2.93-2.78-5.27-5.96-6.91-9.71.98.1,1.18.93,1.75,1.49,1.01,1,2.67,1.73,3.18,3.07Z"/>
      <path class="cls-75" d="M52.94,104.77c-.82,2.8-3.01,5.01-6.13,5.39.59-2.85,2.96-4.98,6.13-5.39Z"/>
      <path class="cls-80" d="M195.53,79.72c-.7-.49-.82-1.39-1.19-2.18-.8-1.72-1.69-3.25-2-5.27l4.03,2.27c-.14,1.71-.29,3.25-.85,5.18Z"/>
      <polygon class="cls-91" points="26.25 69.87 24.11 71.7 23.31 67.37 26.61 64.94 26.25 69.87"/>
      <path class="cls-42" d="M159.1,37.55c.71,1.01,1.31,1.82,1.71,2.88-3.39-1.13-6.58-2.18-9.78-4.05l8.07,1.18Z"/>
      <path class="cls-26" d="M135.21,35.1l-4.3,1.09c-1.45.02-2.96-.92-3.97-1.98,2.43-.17,4.6-.02,6.9-.39.54.27.93.37,1.36,1.29Z"/>
      <path class="cls-64" d="M194.38,128.97c-.16-.02-.49.15-.69.38l-3.88,4.49c-1.63,1.89-3.5,3.6-5.79,4.75,2.24-2.27,4.63-4.11,6.58-6.56,1.53-1.93,2.64-4.01,3.77-6.18.25-.49.52-.93.97-1.02l-.75,2.25c-.25.74-.09,1.31-.21,1.89Z"/>
      <path class="cls-65" d="M80.34,20.14c-1.42-.02-2.54.17-3.93-.13,2.49-2.05,5.23-3.34,8.36-4.45l-4.43,4.58Z"/>
      <path class="cls-30" d="M90.36,191.2l-3.51,1.02-2.62-3.93c2.32.67,4.06,1.68,6.13,2.91Z"/>
      <path class="cls-4" d="M120.03,201.79c-1.1.05-2.17-.88-3.1-1.45,2.31-1.4,3.33-1.53,5.53,0-.7.48-1.46,1.29-2.43,1.45Z"/>
      <path class="cls-77" d="M213.97,136.01c-.57-1.09-.88-2.06-1.16-3.17l2.38-3.25-.4,4.08c-.09.88-.28,1.65-.82,2.34Z"/>
      <path class="cls-50" d="M208.36,74.46c-1.49-1.16-3.23-2.24-4.43-3.91-.6-.84-.22-2.27-.29-3.15l2.68,4.18,2.04,2.88Z"/>
      <path class="cls-40" d="M26.93,94.9c-.32,1.19-1.43,2.13-2.12,3.4.04-2.23.25-4.55,1.1-6.62.35,1.1,1.19,2.21,1.02,3.22Z"/>
      <path class="cls-68" d="M25.82,77.18c-.79-1.52-.93-2.84-1.46-4.27.53-.61.99-1,1.74-1.36l-.28,5.63Z"/>
      <path class="cls-78" d="M75.98,202.77c-2.3.02-4.08-.14-6.03-.53l5.21-.84c.35.47.7.73.83,1.37Z"/>
      <path class="cls-37" d="M215.03,161.17l-.03-3.96c.4-.39.72-.71,1.33-.94-.14,1.87-.62,3.36-1.3,4.89Z"/>
      <path class="cls-25" d="M19.63,138.53c-.06-.58-.28-1.28.12-1.74l.56,2.58-.68-.84Z"/>
    </g>
    <g>
      <path class="cls-103" d="M217.66,160.71c.04-.08.07-.16.11-.24-.06.1-.11.2-.17.3.02-.02.04-.04.05-.06Z"/>
      <path class="cls-103" d="M239.99,93.73c-.3-1.64-5.12-.52-8.66-5.6-1.18-1.69-2.28-3.57-2.67-5.63l-1.5-7.98c-1.84-6-5.39-11.15-10.17-15.17-.82-3.51-1.79-6.67-3.19-9.94-5.73-13.33-17.79-21.49-31.74-24.74l-5.9-5.44,6.59.76,5.76.61c1.87-1.91-3.85-3.07-7.48-3.52,2.69-.85,4.9-2.66,5.96-5.39-4.51-1.16-8.86.42-10.95,4.47l-5.52-1.44c-9.42-7-19.86-10.72-31.71-8.92-14.3-8.33-30.17-7.68-43.72,1.72l-4.43-.6c-14.46-.88-27.25,6.53-35.36,18.21-12,4.55-19.9,13.13-24.66,24.78-2.55,1.7-4.54,3.68-6.46,6.11.24-2.64,1.21-4.75,2.05-7.05.92-2.64,1.63-5.96-.04-5.98-.43,0-.85.24-.98.8l-1.19,3.51c-1.15,2.44-1.99,4.76-2.97,7.46-.77-3.47-3.13-5.97-6.33-7.03-.36,1.09-.24,1.94-.16,2.91.24,3.5,2.24,6.48,5.56,7.87-.82,3.69-1.07,7.18-1.06,10.97-7.01,6.63-11.09,15.44-11.57,25.09-.23,3.88.13,7.46.87,11.31-3.59,10.99-2.95,20.58,2.1,31.08l-3.05-2.4c.62-4.34-1.65-8.23-5.81-10.15-.88,2.97-.14,5.96,1.77,8.49l-2.33-.04c-.62,0-1.04.57-1.04,1.08,0,.54.44.98,1.03,1.1,2.49.49,4.56,1.55,6.42,3.29,1.42,2.05,3.2,4.14,3.68,6.7,1.12,5.97,3.2,11.49,7.45,15.94,2.01,10.84,8.06,18.58,16.86,24.93,2.71,3.92,4.69,8.07,6.52,12.38-1.31,3.75.13,7.58,3.5,9.76,1.31-2.8,1.18-5.82-.5-8.19.42-.43.42-.9.12-1.33-.53-1.18-1.31-2.16-1.47-3.53,3.58,3.97,7.76,6.89,12.48,9.19,9.79,11.17,22.61,17.73,37.76,15.69,16.59,9.09,31.62,11.13,48.46,1.86,17.19.54,31.33-4.96,41.89-18.68,12.74-4.51,22.26-11.94,27.07-24.73,5.42-5.45,9.5-12.15,10.16-19.93,9.4-10.21,13.07-22.59,10.08-36.37,3.8-10.38,2.93-20.24-1.54-30.39,1.03.37,1.61,1.13,2.42,1.66-.54,4.4,1.77,8.5,6.12,9.98.53-3.09-.12-6.1-2.18-8.39,1.03.02,1.84.26,2.76.03.62-.15.98-.7.88-1.21ZM195.1,30.72c11.22,6.19,17.4,14.77,20.44,27.24-.72-.04-.99-.59-1.43-.86l-4.3-2.67c-4.25-11.15-10.87-17.12-21.74-21.69-8.05-3.38-16.63-4.74-25.35-4.54l-2.16-3.16-1.05-1.33c12.24-.4,24.78,1.07,35.58,7.03ZM175.01,39.64c-2.02-.73-4.18-.79-5.88-1.78-1.33-1.38-2.13-3.31-3.15-4.94,6.61.94,6.24.7,9.03,6.72ZM165.15,31.67l-1.59-2.46c1.79-.17,3.31-.12,4.93.11l2.43,3.45-5.77-1.1ZM175.51,40.87l.95,3.29-4.74-.97-1.62-3.61,5.41,1.3ZM173.64,34.65l-3.78-5.2c3.91.14,4.86-.03,6.54,3.47,2.51,3.91,4.42,7.86,6.01,12.59l-4.62-.91c-1.15-3.48-2.25-6.84-4.16-9.94ZM183.65,37.01l-4.85-2.03-2.87-4.73c.94.14,2.27.07,2.95.72,1.87,1.78,3.29,3.85,4.77,6.03ZM180.66,31.29c2.7.61,5.09,1.52,7.61,2.58,1.87,3.19,3.69,6.21,4.94,9.9-2.46-1.93-4.75-3.92-7.55-5.46-1.54-2.48-3.1-4.76-5-7.01ZM182.32,42.46l-1.71-4.2-.69-1.57c3.2,1.09,5.93,2.79,8.65,4.75,3.01,2.17,5.77,4.48,8.01,7.58l-5.82-1.52c-1.05-.27-1.8-.47-2.61-1.2-1.73-1.58-3.79-2.65-5.83-3.83ZM194.88,45.06l-4.04-9.01c3.5,2.13,6.24,5.17,8.7,8.54l4.12,6.84c-1.74-.66-3.72-1-5.2-2.11l-3.58-4.26ZM198.79,41.96c-1.53-1.95-3.28-3.43-5.02-5.23,6.88,3.62,11.83,9.81,14.64,16.82l-3.13-1.28c-1.89-3.72-3.97-7.09-6.49-10.3ZM170.62,22.77c-4.13-.05-8.02-.33-12.1-.05-1.28-1.61-2.65-2.58-4.11-4.01l6.11.08c3.55.69,6.76,2.22,10.11,3.98ZM163.08,18.33c.62-.22,1.08-.18,1.79-.23.92.47,1.65.91,2.23,1.67l-4.02-1.44ZM179.87,24.15l-7.4-1.15c-1.63-1.82-3.48-3.22-5.57-4.81,2.41-.41,4.59-.02,6.73.46,2.14,1.87,4.3,3.34,6.24,5.51ZM185.71,12.23c-1.29,3.24-5.29,4.93-8.83,4.2,1.68-3.37,5.19-4.86,8.83-4.2ZM182.02,18.09c1.5.29,3.03.2,4.3,1.19-3.86.07-7.35-.47-10.94-1.3-4.27-.99-8.38-1.18-12.73-.54-4.54.67-9.03.36-13.34-1.08-.19-.01-.32.17-.31.3,4.67,2.52,8.71,5.74,11.69,10.28,3.47,4.91,6.7,9.8,9.33,15.1.18.19.55.58.24.9l-7.93-2.12-3.4-6.4c-1.81-3.41-3.78-6.67-6.06-9.67-3.53-4.65-8.01-8.5-12.89-11.97,1.42-.43,2.92-.76,4.28-.46l3.39,1.91c9.88,3.51,14.97.65,19.39.96,4.89.35,9.86,2.67,14.99,2.9ZM202.72,71.64l-3.02-2.23-2.23-1.54c.11-4.13-.92-7.93-2.46-11.62.91-.1,1.54.34,2.21.57l3.63,1.22c1.31,4.34,2.06,8.87,1.87,13.6ZM202.09,58.64c1.91.58,3.43,1.4,5.02,2.47l3.28,7.1-7.12-4.66-1.19-4.91ZM196.42,65.66c-4.31-2.9-7.24-6.92-9.81-11.36l5.82,1.11,2.35,3.35c1.05,2.07,1.37,4.45,1.64,6.9ZM196.22,66.8c-1.8-.51-3.07-1.62-4.59-2.53l-4.41-2.65-1.22-6.37c2.6,4.72,5.77,8.54,10.22,11.56ZM186.06,61.11l-5.5-3.8-.95-4.36,4.88.96,1.57,7.21ZM189.2,64.1c6.97,3.95,15.03,8.92,19.65,15.54.35,2.33,1,4.32.8,6.8-3.53-5.52-7.82-9.74-13.28-13.04l-12.69-6.93c-7-3.82-12.51-8.87-16.02-16.08l5.85,1.34c3.92,5.42,9.93,9.1,15.7,12.36ZM209.15,76.69l4.24,4.04c.63.6.58,2.11.64,3.06l.46,7.99c-1.49-1.22-2.51-2.43-3.63-3.84.02-3.84-.9-7.33-1.7-11.25ZM216.34,140.88l-1.93-3.87c4.06-5.52,7.48-11.29,9.83-17.57.75,2.21,1.25,4.21,1.44,6.53-2.8,5.2-5.63,10.17-9.34,14.91ZM225.86,127.73l.09,5.31c.04,2.64-4.44,9.9-6.84,13.03l-2.21-4.31c3.56-4.51,6.3-9.19,8.96-14.03ZM213.97,135.98c-.57-1.09-.88-2.06-1.16-3.17l2.38-3.25-.4,4.08c-.09.88-.28,1.65-.82,2.34ZM223.55,118.36c-1.83,5.23-4.54,9.93-7.51,14.5.2-1.85,0-3.79.57-5.45,2.11-3.92,4.48-7.52,6.13-11.73.46.78,1.11,1.84.81,2.69ZM212.34,131.77l-2.09-5.82c3.9-5.43,6.89-11.26,9.01-17.58,1.31,1.96,2.2,3.78,3.03,5.89-2.62,6.23-5.99,11.94-9.95,17.5ZM209.71,124.71l-4.41-8.54,3.48-6.5c1.38,4.28,1.91,8.64,1.64,13.18-.04.68.12,1.36-.71,1.86ZM215.91,114.05c-.89-4.13-2.09-7.97-3.57-11.91-.17-.57.41-1.47.75-1.92l3,3.72c.7.87,1.83,1.89,2.17,3.18-.39,2.44-1.24,4.66-2.36,6.93ZM215.17,115.91l-3.64,6.18c0-4.83-.57-9.36-2.09-13.87l2.25-4.85c1.63,4.11,2.69,8.25,3.49,12.53ZM204.78,114.96l-1.37-3.21c-.29-.68-.81-1.65-.79-2.5,2.49-4.49,4.66-8.96,6.25-13.91.4.05.46.39.62.57l2.8,3.25c-2.2,5.46-4.76,10.66-7.51,15.8ZM202.04,107.95c-1.24-4.26-1.86-8.3-2.09-12.68,2.05,2.18,3.5,4.33,5.18,6.81l-3.09,5.87ZM206.52,98.82c-.3.75-.42,1.47-.98,2.2-1.42-2.58-3.12-4.62-4.98-6.69l-4.71-5.24c-3.71-4.13-7.49-8.23-9.97-13.32-1.29-2.65-2.69-5.21-3.14-8.15-.03-.21.06-.39.2-.42l5.27,2.73c2.73,6.48,6.65,12.22,11.45,17.48,2.68,2.94,5.4,5.54,7.75,8.8-.11.94-.54,1.77-.88,2.62ZM193.2,77.38c-1.39-1.99-2.37-4.08-3.44-6.47.52,0,.86.42,1.43.79l2.01,5.68ZM192.35,72.25l4.03,2.27c-.14,1.71-.29,3.25-.85,5.18-.7-.49-.82-1.39-1.19-2.18-.8-1.72-1.69-3.25-2-5.27ZM200.31,86.6l-4.07-4.82,1.16-6.56c1.61,1.15,3.14,2.05,4.42,3.51l-1.5,7.88ZM181.28,66.29c1.86,8.34,6.24,15.14,12.06,21.59-1.95,9.9.43,19.91,4.26,29.13l-1.34,2.85c-1.7,3.61-3.26,7.19-5.67,10.48,1.04-3.99.22-7.65-2.96-10.25-2.43,3.93-1.74,8.64,1.62,11.89-1.62,2.25-3.61,3.86-5.63,5.55-.49.41-.55,1.15-.13,1.65.28.34.9.38,1.45-.06,2.92-1.85,5.12-4.31,7.64-7.04-.63,4.59-1.18,9.01-1.02,13.67-7.79,6.74-13.55,15.22-16.86,25.02-4.93,1.64-9.67,3.4-14.22,5.89l-7.57,4.8c-1.22.48-3.34,1.26-4.54.38-3.41-2.5-7.67-3.37-11.4-.53,2.89,2.99,6.98,3.74,10.62,2.35.88-.34,1.73-.63,2.78-.34l-4.59,3.78c-9-.42-17.06.74-25.35,4.72-6.56-2.9-13.49-3.74-20.53-2.67-3.37-2.06-6.49-3.87-9.98-5.41-3.28-1.53-6.48-2.7-10.06-3.59-4.96-7.65-12.02-13.38-20.52-16.89l-1.1-3.31c-1.66-6.05-4.47-11.54-8.49-16.34l-2.8-3.34c1.03-7.69-.02-15.07-1.9-22.46-.33-2.26.77-4.7,1.3-6.71,4.15-.51,7.19-3.32,7.7-7.35-1.91-.1-3.42.59-5.2,1.57,1.16-2.91,3.47-9.43,1.65-9.68-.67-.09-1.05.28-1.19,1.02-1.09,5.79-4.35,9.86-6.43,15.05-.64-.48-.49-1.07-.23-1.59,2.4-4.81,3.84-9.84,4.7-15.16l3.38-.85c2.92-.74,5.02-3.32,5.75-6.46-3.53-.42-6.75,1.21-8.66,4.09.38-3.41.5-6.54.55-9.86,3.07-2.94,5.95-5.71,8.51-9.07,3.65-4.81,6.22-10.07,8.32-15.74,10.75-3.93,19.35-9.09,28.22-16.3,9.69.51,18.06-.3,26.81-4.94,3.43,1.39,6.77,2.32,10.24,3.47l7.69,2.55c-.26,4.32,2.41,8.08,6.67,9.16.28-2.62-.53-4.88-1.88-6.95l3.2,1.57c.52.25,1.15.05,1.32-.39.18-.44-.05-.92-.53-1.26-4.34-3.06-9.08-5.18-14.26-7.1,1.28-.6,2.73-.86,4.23-.97,8.31,6.18,16.19,10.38,26.14,13.17,1.23.35,2.32.67,3.46,1.32,3.15,6.69,8.34,12,14.74,15.85ZM204.98,133.63c.52.6.42,1.2.63,1.76.45,1.18.73,2.31.9,3.61-3.85,4.85-8.13,9.05-12.48,13.42l-4.32,4.34c-3.14,3.16-5.42,6.91-7.3,11l-3.77,10.12c-2.93,8.71-7.42,16.71-13.51,23.54l-7.5.9,1.33-1.58,3.8-4.51c4.64-5.51,8.15-11.63,10.55-18.44l3.02-8.54c2.17-6.16,5.54-11.6,9.83-16.57,3.31-3.85,6.99-7.04,10.78-10.39,2.99-2.65,5.64-5.28,8.02-8.65ZM201.7,125.9c1.31,1.92,2.07,3.97,3.08,6.35-.83,1.27-1.68,2.31-2.87,3.48l-.22-9.83ZM191.96,189.32l1.44-4.61c3.9-1.7,7.32-3.9,10.86-6.45-1.09,2.93-2.86,5.27-4.79,7.58-2.43,1.29-4.66,2.52-7.51,3.47ZM196.32,188.78c-1.67,1.71-3.76,2.94-5.96,4.22.16-.91.58-1.47.93-2.31l5.04-1.91ZM203.5,177.21l2.52-3.93c-.13,1.7-.87,3.14-2.52,3.93ZM200.43,179.71l-6.5,3.65,1.25-5.11c2.9-1.75,5.67-3.37,8.08-5.61l3.16-3.02c-1.36,3.83-3.63,6.96-5.98,10.09ZM197.13,175.73c2.92-4.41,5.75-8.62,7.79-13.45l3.33-7.62c.47,4.08-.02,7.96-.67,12.11-3,3.4-6.08,6.67-10.44,8.96ZM195.65,175.74l1.29-8.13c.11-.72,1.19-1.25,1.67-1.71,3.3-3.13,5.6-6.7,8.21-10.46-1.55,4.43-3.63,8.3-5.82,12.31-1.54,2.82-3.28,5.3-5.35,7.99ZM203.73,158.2c-2.56,4.34-6.16,7.71-10.32,10.61-3.92,2.83-8.15,4.87-12.72,6.56l2.2-6.13c10.86-4.3,18.38-11.16,23.09-21.86l1.5-3.41.77,6.57-4.52,7.65ZM136,205.6l4.4-4.08c2.52.84,4.89,1.29,7.47,1.53,9.65.91,17.48.09,26.59-3.1l5.2-1.82c-1.93,2.85-3.99,5.08-6.52,7.28-11.43,3.67-25.69,4.56-37.15.19ZM171.03,207.14c-5.31,3.94-11.21,6.83-18.13,7.7l6.42-5.64c4.02-.28,7.75-1.04,11.71-2.06ZM119.16,218.79c.83-.18,1.74-.06,2.53.16l5.31,1.53c-5.61,1.32-11.61,1.03-17.3-.75,3.32-.19,6.31-.28,9.46-.95ZM106.94,218.83c-1.04.08-2.04-.81-3.07-1.3l7.54-3.14,6.89,3.37c-2.58.7-4.96.88-7.48.77l-3.88.29ZM122.89,218.29c-3.62-1.12-6.96-2.56-10.35-4.35l4.38-2.37,6.76,2.55c4.56,1.72,9.29,2.35,14.28,2.33-2.6,1.41-5.07,2.37-7.8,3.26-2.49-.2-4.83-.76-7.26-1.42ZM78.34,208.74l5.98-.32,8.03,4.89c-2.68.48-5.08.38-7.62-.02l-6.39-4.56ZM82.08,212.78c-3.92-.56-7.62-2.26-11.13-4.39,1.77.27,3.75-.22,5.44.45l5.69,3.95ZM85.93,208.29l3.17-.44,8.95,4.25c-.99.58-2.46.92-3.67.91-3.02-1.18-5.64-2.92-8.45-4.72ZM75.53,195.58c-3.05-3.39-5.33-7.01-7.06-11.23l3.58.7c.49.1,1.38-.02,1.81.39,7.69,10.65,16.54,19.49,28.92,24.31.44.17.82.19,1.23.59l-3.91,1.36c-9.49-3.2-17.88-8.7-24.57-16.13ZM70.54,201.09c-2.38.05-4.75.33-7.12-.28-5.73-1.48-11.04-4.32-15.44-8.36,6.23,2.2,12.35,3.8,18.87,4.28l7.67-.68,3.7,3.7-7.68,1.34ZM75.98,202.75c-2.3.02-4.08-.14-6.03-.53l5.21-.84c.35.47.7.73.83,1.37ZM35.75,172c1.66.49,3.08,1.14,4.59,2.01,1.15,3.77,3.25,6.77,5.9,10.21-2.72-1-5.25-2.73-7.75-4.45l-2.74-7.78ZM37.02,178.81c-3.61-2.82-6.65-6.1-8.9-10.27l6.03,2.64c1.21,2.56,2.21,4.96,2.87,7.63ZM39.82,157.31l1.22-14.29,1.86,2.25c.97,1.18,2.03,2.26,2.92,3.79l-.62,14.61c-.15,3.6-.66,7.17.65,10.49,1.25,3.16,3.78,5.46,5.7,8.2l3.8,5.43-5.91-2.03c-8.49-7.53-10.57-17.29-9.62-28.46ZM16.58,88.5c1.5-2.62,2.89-5.17,4.7-7.62l2.1,4.96c-2.26,2.68-4.18,5.57-6.07,8.62l-3.2,5.18c-.37-1.78-.18-3.35-.08-5.05.67-2.15,1.49-4.14,2.55-6.1ZM14.4,90.47c.8-4.81,2.97-9.21,5.79-13.2l.83,2.39c-2.67,3.42-4.67,6.86-6.62,10.81ZM17.17,96.68c1.99-3.4,4.06-6.57,6.66-9.73.69,1.04,1.27,2.19,1.65,3.46l-4.57,7.15c-2.07,3.29-3.83,6.51-5.35,10.42-.76-2.03-1.06-4.09-1.31-6.31l2.91-4.98ZM25.92,91.65c.35,1.1,1.19,2.21,1.02,3.22-.32,1.19-1.43,2.13-2.12,3.4.04-2.23.25-4.55,1.1-6.62ZM17.89,105.24c1.77-3.59,3.64-6.94,6.11-10.25-.29,2.01-.2,4.21-1.03,5.91-1.84,3.79-4.21,7.05-5.73,11.29-1.88-2.05-.72-4.17.65-6.95ZM18.24,112.38c2.4-5.79,5.55-11.07,9.21-16.11l2.16,5.82c-3.84,5.51-7.16,11.21-8.86,17.65l-2.85-5.54c-.26-.51.12-1.29.34-1.81ZM29.94,103.05l4.72,8.8-3.46,6.49c-1.49-5.01-2.36-10.05-1.25-15.29ZM30.56,119.88l-2.17,4.72c-1.67-4.15-2.88-8.12-3.5-12.5,1.02-2.14,2.04-4.11,3.54-6.12-.04,4.95.72,9.4,2.13,13.91ZM24.1,113.82c.88,4.12,2,7.99,3.66,11.84l-.89,2.2c-1.97-2.24-3.67-4.42-5.24-6.86.41-2.51,1.18-4.78,2.47-7.18ZM35.13,113.11l1.3,2.67.96,2.86c-2.59,4.48-4.58,9.03-6.37,13.93-.56-.38-.92-.9-1.35-1.38l-2.13-2.36c2.36-5.41,4.78-10.59,7.59-15.72ZM116.03,199.59c-1.16-.07-2.07-.78-2.97-1.35-.68-.42-1.53-.58-1.99-1.29l9.07-3.86c7.12-3.42,14.58-5.16,22.4-5.04.63.01,1.31-.18,2.06.07l-5.02,4.62c-8.32.36-16.05,3.34-23.54,6.85ZM138.21,193.86l-3.94,3.82-4.98-2.09c3.03-.94,5.84-1.58,8.92-1.73ZM118.56,192.72l-5.63,2.49c-8.8-2.23-17.98.27-26.47,2.98-1.07-.78-1.94-1.66-2.8-2.55l-1.07-1.11,9.62-2.69c8.68-2.43,17.81-3.05,26.35.37.58-.17.62.66,0,.51ZM103.65,199.55l1.76,1.12,3.38,2.07c-3.87,1.38-7.73,2.42-11.81,3.16-1.34-.63-2.44-1.35-3.46-2.16-.65-.52-1.62-.74-2.11-1.55,4.24-.71,8.28-1.34,12.24-2.65ZM90.16,201.33l-2.91-2.29,4.41-1.37,4.3,2.73-5.8.94ZM93.08,197.41l5.14-1.33,3.99,2.8c-4.98,1.91-4.83,1.15-9.13-1.47ZM85.78,192.49l-4.09,1.23c-2.19-2.37-4.08-4.88-5.77-7.88l6.88,1.92,2.97,4.74ZM84.23,188.26c2.32.67,4.06,1.68,6.13,2.91l-3.51,1.02-2.62-3.93ZM91.89,190.81c-4.86-2.88-10.06-4.8-15.63-5.96l-12.45-2.44c-3.97-.78-7.72-1.88-11.4-3.5-1.85-.81-3.46-1.86-4.85-3.26-.42-.42-.45-.84-.65-1.27-.43-.93-.76-1.82-.66-2.98,5.42,3.19,11.17,5.05,17.28,6.32l14.74,3.07c5.28,1.1,10.1,3.15,14.8,5.69l5.24,2.93-6.42,1.39ZM66.86,184.07l3.04,5.34c1.19,2.1,2.43,4.03,3.99,5.8-1,.02-2.26.6-3.24.24-4.16-2.4-6.75-7.9-8.86-12.45l5.08,1.08ZM62.9,176.52l-4.84-1.15-2.44-6.18,5.58,2.76,1.7,4.56ZM62.63,172.8c2.26,1.48,4.22,2.88,6.07,4.92l-4.4-.83-1.67-4.09ZM56.71,174.89c-1.23.11-1.92-.64-3-.97l-2.8-6.52c.97.21,2.52.55,3.31,1.29l2.49,6.2ZM52.31,173.19c-2.37-.62-4.32-1.79-6.21-3.12-.17-1.5-.08-2.8.11-4.36,1.16.26,2.14.59,3.13,1.1l2.98,6.39ZM75.43,179.07l-4.77-.91c-6.68-7.28-15.22-10.44-24.47-13.76l.31-5.4,1.69.75,10.77,4.5c7.9,3.3,14.25,8.32,19.29,15.32-1.11.03-1.9-.32-2.81-.5ZM46.48,157.84l.39-6.93c2.03,2.66,3.44,5.5,4.86,8.94-1.84-.26-3.36-1.37-5.25-2.01ZM53.32,160.72c-3.68-9.28-8.79-15.56-15.48-22.69-1.92-2.05-3.65-4.06-5.38-6.26.17-1.12.69-1.92,1.13-2.79.32-.64.31-1.41.88-2.08,1.97,3.57,4.55,6.37,7.29,9.29,5.98,6.38,11.86,12.71,14.51,21.15l1.66,5.31-4.61-1.93ZM34.93,125.56l2.95-5.64c1.25,4.37,2,8.47,2.08,12.72-2.25-2.25-3.67-4.61-5.02-7.08ZM36.34,137.93l3.77,4.03-.36,3.44c-1.54-3.06-3.31-5.6-5.18-8.34-.87-1.27-2.4-2.11-2.53-3.99l4.31,4.86ZM51.34,179.66l7.1,2.4c1.37,2.52,3.2,4.55,4.9,6.83,1.7,2.29,3.28,4.39,5.45,6.67-4.41.59-5.31-.07-7.92-2.86l-2.05-2.19c-3.01-3.22-5.34-6.95-7.48-10.86ZM98.46,206.71l5.89-1.54,4.8,2.65c-1.04,1.05-2.37,1.21-3.61,1.92l-7.07-3.03ZM105.99,204.8l4.01-1.42,4.34,1.65c-1.2.99-2.49,1.54-3.92,2.26l-4.43-2.49ZM111.37,202.85c-4.03-2.01-7.63-4.41-11.44-6.95l6.6-.52c3.87,2.77,7.92,4.79,12.23,7.08-2.78,2.34-4.15,2-7.39.39ZM116.93,200.32c2.31-1.4,3.33-1.53,5.53,0-.7.48-1.46,1.29-2.43,1.45-1.1.05-2.17-.88-3.1-1.45ZM121.19,198.51l6.39-2.5,5.68,2.38-4.12,3.73-7.96-3.62ZM135.41,197.94l3.68-3.43c9.69-9.04,17.76-15.96,30.37-20.74,1.55-.59,2.95-1.32,4.68-1.56l-2,5.72-5.87,2.68-7.62,4.21c-6.2,4.08-11.64,8.7-16.96,13.88-4.37,4.25-8.68,8.19-13.57,11.81-4.47,3.35-5.03,2.58-10.18.49l6.59-4.01c3.9-2.7,7.39-5.8,10.88-9.05ZM159.26,194.09l4.09-.11c-2.38,3.14-4.75,5.84-7.47,8.53-3.93-.1-7.69-.03-11.53-1.15,5.65-1.63,10.51-3.82,14.91-7.27ZM141.08,200.85l4.33-4.16,3.2-2.89,8.69.47c-4.84,3.57-10.28,5.61-16.22,6.58ZM149.7,192.75c1.75-1.41,3.3-2.92,5.19-3.83l5.89.13,6.06-.34-2.56,4.11c-4.88.54-9.64.43-14.57-.07ZM164.26,187.34c-2.57.98-5.09.89-7.81.33,2.53-2.05,5.22-3.43,7.98-4.94l7.02-3.5c-.53,2.31-1.6,4.41-2.79,6.42l-4.4,1.69ZM125.4,213.56l3.88-2.76c5.42.99,10.76,1.18,16.41.8l-5.31,3.43c-5.08.92-10.05-.07-14.97-1.47ZM145.61,210.52c-4.95.33-9.72.34-14.78-.56l4.16-3.65c4.39,1.75,8.9,2.63,13.6,3.03-.81,1.05-1.85,1.11-2.98,1.18ZM171.15,199.77c2.6-2.02,5.04-3.84,7.26-6.21l4.48-.73-2.06,3.64c-3.23,1.27-6.22,2.53-9.68,3.3ZM167.12,200.89l4.82-6.75,4.69-.21c-3.08,2.62-5.77,5.13-9.51,6.96ZM172.76,193.04l2.03-3.59c3.7-.31,7.09-1.24,10.76-2.51l-1.87,4.59c-3.61.94-7.13,1.45-10.92,1.51ZM182.52,186.81l-7.15,1.65,1.9-3.89c3.91-1.86,7.49-3.91,11.03-6.57-.36,2.3-.94,4.31-1.77,6.42-1.29.81-2.42,2.03-4.01,2.39ZM177.79,183.11l2.33-6.43,9.22-3.99-.7,3.83c-3.39,2.65-6.93,4.74-10.85,6.59ZM183.5,167.81c2.1-4.18,4.57-7.96,7.81-11.24-.15,1.17.11,2.54-.35,3.57l-3.67,5.31c-.91,1.32-2.3,1.93-3.79,2.37ZM191.94,163.19l.54-7.81,4.65-4.58-.32,8.34c-1.41,1.52-2.82,2.82-4.87,4.05ZM207.09,141.9c-1.9,5.46-4.95,11.7-9.08,16.05l.28-8.31c2.98-2.99,5.74-5.91,8.38-9.3.29.31.6,1.02.42,1.55ZM198.46,139.36c.26-4.19.86-8.09,2.21-12.13l.21,9.63c-.75,1.02-1.5,1.76-2.42,2.5ZM198.36,131.93l-.98,8.62-2.98,2.65c-.52.47-.93,1.12-1.71,1.39-.21-5.39.67-10.49,1.7-15.64-.16-.02-.49.15-.69.38l-3.88,4.49c-1.63,1.89-3.5,3.6-5.79,4.75,2.24-2.27,4.63-4.11,6.58-6.56,1.53-1.93,2.64-4.01,3.77-6.18.25-.49.52-.93.97-1.02l2.76-6.41,1.18,2.52c.4.86,1.43,2.06,1.41,3.1-1.05,2.63-2.01,5.13-2.33,7.92ZM189.35,130.9c-2.47-3.02-3.01-5.9-1.55-9.38,2.57,2.38,3.08,6.13,1.55,9.38ZM147.77,182.61c-2.98,1.51-6.68,1.15-9.42-1.18,1.5-.79,3.02-1.06,4.61-1.01,1.68.4,3.2.88,4.81,2.19ZM46.8,110.14c.59-2.85,2.96-4.98,6.13-5.39-.82,2.8-3.01,5.01-6.13,5.39ZM35.04,94.63c-.53-.73-.43-1.51-.71-2.16-.49-1.16-.7-2.31-.89-3.6l4.22-4.92,3.89-4.37c.2.7-.05,1.28-.04,1.87.02,1.6.14,3.22-.06,4.95-2.25,2.73-4.49,5.31-6.41,8.22ZM38.17,102.25c-1.11-2.17-2.14-4.11-2.7-6.41.41-1.3,1.51-2.69,2.68-3.71l.02,10.13ZM41.46,46.11c4.29-1.77,8.66-2.88,13.17-4.05l8.65-2.25c.56-.15,1.06-.65,1.87-.37-.95,1.83-1.71,3.52-2.51,5.48-8.53,3.38-17.87,3.78-25.92,8.67.69-2.39,1.64-4.44,2.82-6.51.34-.6,1.34-.72,1.93-.97ZM40.62,45.4c2.27-3.92,5.13-7.23,9.09-9.66-.78,2.06-1.41,3.98-1.84,6.11-.14.7-.41,1.3-1.26,1.48-2.14.49-3.89,1.21-5.98,2.07ZM74.19,20.34l-6.38.96c5.59-4.78,12.38-7.83,19.77-8.2-.2.73-.94.84-1.66,1.04-4.47,1.22-8.28,3.25-11.72,6.2ZM84.77,15.53l-4.43,4.58c-1.42-.02-2.54.17-3.93-.13,2.49-2.05,5.23-3.34,8.36-4.45ZM68.71,22.5c11.68-2.88,21.99-.76,33.48,2.08l-2.28,1.81-2.44,1.98c-4.82-.97-9.43-1.91-14.38-2.29-7.62-.59-15.02.61-22.26,3.23,1-1.96,2.44-3.24,3.67-4.86,1.02-1.34,2.53-2.4,4.21-1.95ZM119.71,9.49c1.64.06,3.17.09,4.87.65l-7.03,3.8c-1.82-.43-4,.63-5.59-.05l-7.54-3.21c5.23-1.02,10.14-1.38,15.28-1.2ZM106.04,9.24c7.22-3.27,15.31-3.81,22.9-.87l-2.13,1.03c-6.98-1.51-13.72-.96-20.77-.16ZM106.94,13.04c2.21.53,4.25,1.78,6.38,2.98l15.6,8.8c.43.11.18.66-.23.43l-4.86,2.24-10.4-6.38c-5.22-2.9-10.49-5.29-16.26-6.7,1.64-1.4,3.24-2.34,5.08-3.38,1.66.52,3.25,1.11,4.69,2.01ZM141.19,42.22c-4.16-1.72-8.35-2.9-12.6-4.35l-7.13-2.43,3.54-1.94c1.37,1.81,3.04,2.92,5.17,3.57,5.64,1.72,11.06,3.94,16.03,7.45-1.8-.52-3.26-1.57-5.01-2.29ZM144.06,49.92c-3.11-1.2-4.99-4.14-5.07-7.44,3.25.99,4.98,4.11,5.07,7.44ZM124.74,32.61l-9.91,4.52c-6.42,2.49-13.23,3.08-20.07,2.68l3.53-2.82,2.02-1.89c6.34-.12,12.39-1.63,18.22-4.21l13.77-6.12c2.31-1.03,4.6-1.73,7.07-1.92.89-.07,2.18-.49,3.05-.14,1.34.55,2.3,1.47,3.7,2.45-7.69,1.44-14.42,4.29-21.37,7.46ZM58.74,57.69l5.15-13.17c2.63-6.72,6.58-12.56,11.83-17.49,2.03-.18,3.87-.22,5.83,0-.35.85-1.12,1.14-1.58,1.67l-4.39,5.04c-3.8,4.82-6.42,10.2-8.64,15.92l-4.25,10.95c-2.98,7.68-7.91,14.14-14.17,19.63v-5.1s.14-2.2.14-2.2c4.44-4.32,7.8-9.46,10.07-15.25ZM49.78,63.65c2.14-1.24,4.04-2.46,6.58-3.45-1.8,4.13-4.34,7.68-7.5,11.13-.17-2.67.41-5.12.92-7.68ZM46.66,50.53c1.57-.58,3.09-.95,4.92-1.29l-1.47,6.72c-1.98,1.02-3.47,2.26-5.27,3.6l1.83-9.03ZM43.63,60.55c-2.56,2.18-4.5,4.54-6.62,7.2.42-2.75,1.62-4.97,2.71-7.36,1.73-3.15,3.45-6.16,5.66-9.11l-1.76,9.27ZM52.66,48.91l9.33-2.55-1.64,4.48c-3.16,1.29-5.98,2.53-8.96,4.31l1.27-6.25ZM71.79,41.65l2.86-4.97c4.87-1.08,9.65-1.86,14.82-1.7l-5.22,3.96c-4.45.21-8.43.95-12.46,2.7ZM82.19,40.18c-2.16,2.06-4.77,3.16-7.32,4.74l-6.07,2.91c.6-1.56,1.22-2.97,2.06-4.51,3.46-1.81,7.18-2.96,11.33-3.14ZM81.7,34.44c2.11-2.4,4.93-3.49,7.83-4.31,2.18-.5,4.24-1.2,6.7-.72l-5.33,4.6c-3.09-.15-6,.18-9.2.43ZM80.03,34.77l-4.16.45c2.24-3.12,4.73-5.64,7.45-8.19l8.78,1.31c-4.82,1.31-9.09,2.48-12.07,6.42ZM68.22,49.15c1.89-.72,3.53-1.59,5.27-2.46,13.61-6.69,23.8-17.69,36.06-26.38.52.13.9.37,1.33.62l3.63,2.05c-9.59,6.46-17.66,14.18-26.86,20.99-6.75,4.99-13.89,8.96-21.86,11.88l2.43-6.69ZM103.23,23.74l-10.46-2.43c3.51-1.71,6.86-2.91,10.44-4.01l5.33,2.36-5.31,4.08ZM112.26,26.02c.96-1.06,2.08-1.63,3.34-2.44,2.19,1.39,4.41,2.42,6.56,4.24-3.44-.21-6.51-.94-9.91-1.8ZM120.78,28.75c-.95.5-1.8,1-2.79,1.32-1.42.45-2.93,1.55-4.58,1.61-2.47.09-4.75-.93-7.18-1.3l2.75-2.12c.66-.51,1.27-1.14,2.13-1.58,3.22.9,6.3,1.62,9.67,2.06ZM130.5,24.51l-4.42-2.4,7.86-3.84c2.14.97,4.33,1.74,6.33,3.33-3.51.58-6.55,1.42-9.77,2.92ZM129.7,15.61c2.32-.79,4.42-1.99,6.81-2.07,6.34,1.63,9.92,5.42,14.35,10.37l-3.52.8c-5.35-3.95-11.06-6.98-17.65-9.1ZM132.57,17.78l-7.4,3.72-3.52-2,6.45-3.25,4.48,1.53ZM101.29,16.85c-3.77,1.01-10.13,4.35-11.48,4.18-.58-.07,4-4.19,6.15-5.79,1.84.39,3.59.76,5.33,1.61ZM66.74,28.63c-2.79,2.11-5.52,3.75-8.66,5.57.37-1.25,1.01-2.17,1.66-3.3,2.26-.9,4.39-1.89,6.99-2.27ZM69.58,28.02c1.14-.75,2.82-.51,4.25-.66l-4.43,5.15c-1.1,1.28-2.9,1.83-4.31,2.72-2.46,1.54-4.69,3.03-6.87,4.9-.65.55-2.03.44-2.88.58.32-1.82,1.16-3.15,1.8-4.83,4.37-2.36,8.32-5.14,12.44-7.87ZM43.9,51.4c-2.27,3.74-4.72,7.09-6.2,11.12l-2.21,6.05c-.71,1.95-1.68,3.57-2.85,5.17.29-5.06.96-9.74,2.22-14.53.56-1.28.53-3.2,1.63-4.12,2.12-1.78,4.78-2.62,7.41-3.68ZM42.54,62.93c5.47-5.08,10.38-7.71,17.24-10.69l-2.49,6.29c-6.81,3.27-13.07,6.71-17.57,12.83-2.63,3.78-4.87,7.53-6.92,11.99l-.21-7.05c2.77-4.53,6.19-9.88,9.95-13.38ZM33.64,83.85c2.38-4.75,4.73-9.4,8.34-13.49l-.34,7.63-8.32,9.27c-.62-1.11-.25-2.27.32-3.41ZM39.34,90.84c.18-1.1,1.4-1.83,2.12-2.75-.18,3.95-.73,7.86-2.1,12-.13-3.05-.54-6.16-.02-9.25ZM42.53,84.92c-.03-5.51.21-10.78.72-16.2.9-1.01,1.88-1.71,2.91-2.41.64-.72,1.37-1.26,2.32-1.76-1.59,9.73-.46,19.7-2.03,29.5-.86,5.38-2.19,10.42-4.65,15.36-.66-.71-.81-1.54-1.16-2.26l-1.5-3.11c2.4-6.19,3.42-12.51,3.39-19.13ZM47.83,93.9c.94-3.16,3.86-5.4,7.59-5.4-1.12,3.16-4.09,5.19-7.59,5.4ZM130.92,36.16c-1.45.02-2.96-.92-3.97-1.98,2.43-.17,4.6-.02,6.9-.39.54.27.93.37,1.36,1.29l-4.3,1.09ZM126.45,33.03l6.7-3.09c3.17-1.46,6.48-2.22,9.9-3.07,2.83-.7,5.5-1.59,8.45-1.98l3.05,4.04-10.53,2.34c-5.8,1.29-11.5,1.88-17.57,1.77ZM151.11,30.73l4.92.86c1.21,1.5,2.11,3.1,2.9,4.97l-11.01-1.82-3.94-2.33,7.13-1.67ZM159.1,37.52c.71,1.01,1.31,1.82,1.71,2.88-3.39-1.13-6.58-2.18-9.78-4.05l8.07,1.18ZM146.54,12.28c4.1.08,8,1.14,11.76,2.72-3.02.16-5.7-.33-8.44-1.05-1.16-.31-2.32-.65-3.32-1.67ZM162.63,10.96l5.25,3.19c-2.55-.1-4.94.36-7.54.67-14.33-6.77-26.47-3.38-39.67,4.11l-3.15-1.8c-.55-.32-1.15-.46-1.66-1.09,15.35-9.18,30.35-13.62,46.77-5.08ZM113.21,1.34c8.23-1.15,16.57.68,23.9,4.68l-6.55,1.91c-10.35-4.57-21.68-2.53-31.14,3.58-4.07,2.63-7.6,5.71-11.11,9.14l-6.57-.59c1.16-1.43,2.43-2.39,3.74-3.46.33-.7,1-1.01,1.57-1.52,7.55-6.69,15.98-12.32,26.15-13.74ZM79.4,8.98c4.68-1.29,9.51-1.31,14.24-.62l-4.77,3.8c-1.68-.1-3.16-.09-4.73.3-8.01,1.39-15,5.46-20.48,11.39-4.47,4.83-7.5,11.07-9.68,17.26-1.01.41-1.92.68-2.93.88-.84.17-1.57.59-2.48.54,4.43-16.03,14.63-29.1,30.84-33.56ZM29.99,51.51c-1.2,4.24-2.44,7.99-3.23,12.1l-3.56,2.4c.06-2.37-.4-4.99.57-7.26,1.25-2.92,3.75-5.13,6.22-7.24ZM24.11,71.67l-.8-4.33,3.3-2.43-.36,4.93-2.14,1.83ZM26.1,71.53l-.28,5.63c-.79-1.52-.93-2.84-1.46-4.27.53-.61.99-1,1.74-1.36ZM15.4,48.82c3.4,1.74,5.38,4.91,4.91,8.86-3.85-1.63-5.24-4.99-4.91-8.86ZM20.18,65.26c.41-4.57,1.21-8.97,2.97-13.35l2.83-7.05c.07,1.02,0,2.06-.37,3-4.16,10.47-5.12,20.54.15,30.81.33.65.03,1.6.04,2.2.22.34-.04,1.18.94,1.2-.02-9.25.48-18.11,3.18-26.77,2.89-9.29,7.36-17.43,15.27-23.28.69-.89,1.75-1.49,2.82-2.07,2.03-1.32,4.06-2.32,6.38-3.34-1.52,2.37-2.72,4.62-3.82,7.26-9.86,5.86-14.65,15.98-17.18,26.97-.12.52-.23,1.02-.52,1.34-.04,1.22-.25,2.38-.43,3.72-.87,6.43-1.22,12.77-.59,19.28.61,6.24,2.58,11.87,5.29,17.44,1.72,3.53,3.57,6.79,4.96,10.46.28.73.48,1.33.71,1.96.62-2.81,1.87-5.4,3.27-7.98,1.94-3.05,2.87-6.24,4.12-9.75-.38,4.23-2.35,7.82-4.03,11.61-1.26,2.86-1.86,5.87-2.4,8.8,2.12,6.88,3.2,14.07,2.22,21.5l-3.28-3.54c-.37-.4-1.34-.89-1.43-1.6l-.84-7.06c-.73-6.12-2.74-11.84-5.79-17.23-3.32-5.87-5.65-11.84-7.67-18.27l-3.89-8.9c-2.42-5.54-3.48-11.46-2.94-17.34ZM11.89,81.21c.98-2.09,1.99-4.23,3.47-5.97l3.79-4.46c.21,1.72.34,3.29.87,5.05-1.33,1.57-2.28,3.32-3.35,5.02-6.71,12.91-4.1,27.74,3.57,39.98,2.26,3.62,4.91,6.76,7.66,9.84,4.69,5.25,8.96,10.25,11.75,17.09l-.64,7.04c-.59-.19-1.31-.58-1.51-1-1.29-6.04-5.74-12.42-9.99-16.96-5.97-6.38-10.9-13-14.66-20.88-1.28-2.68-2.06-5.32-2.88-8.19-2.53-8.88-1.96-18.31,1.91-26.55ZM36.29,152.93c-2.47-1.04-4.48-2.64-6.62-4.13-.35-2.62-.53-5.09.07-7.74,2.95,3.52,5.08,7.33,6.56,11.87ZM28.49,147.95l-3.21-2.94c-.21-2.88-.14-5.66.28-8.61l3.36,3.58c-.55,2.57-.55,4.99-.44,7.97ZM20.04,129.82l4.58,5.26c-.53,3-.4,5.69-.48,8.95l-2.15-3.77c-1.47-3.24-2.04-6.77-1.95-10.45ZM20.31,139.35l-.68-.84c-2.15-3.15-4.33-6.61-5.27-10.45-.47-1.91.25-3.98.71-5.93.98,2.34,3.1,4.07,3.7,6.29.73,2.7-.07,5.66.98,8.35l.56,2.58ZM13.39,125.02c-.55-2.32-.92-4.62-.88-7.23,2.2,2.87,1.45,3.87.88,7.23ZM8.8,108.06l1.6,4.6,1.08,2.41c-1,13.32,6.84,26.72,17.5,34.43,3.16,2.29,6.26,4.42,9.79,6.12.23.8.1,1.4.06,2.03l-.21,3.85c-2.46-.99-4.47-2.35-6.71-3.71-6.67-4.04-12.42-9.14-16.9-15.52-7.33-10.43-9.96-21.67-6.21-34.21ZM38.88,167.31c-1.38-.38-2.44-1.11-3.59-1.89l-.94-4.91,4.25,2.15.28,4.65ZM24.81,154.18c2.82,1.9,5.35,3.9,8.41,5.49l.92,5.2c-2.21-1.4-4.65-2.79-6.53-4.84-1.47-1.6-2.08-3.74-2.8-5.85ZM25.53,158.47c-2.93-2.78-5.27-5.96-6.91-9.71.98.1,1.18.93,1.75,1.49,1.01,1,2.67,1.73,3.18,3.07l1.97,5.14ZM2.24,125.72c3.11,1.79,4.76,4.98,4.34,8.43-3.39-1.42-4.75-4.96-4.34-8.43ZM12.6,146.79c-1.15-6.23-5.24-11.63-11.73-12.74.86-.53,1.65-.3,2.55-.06,2.6.69,4.83,2.05,6.59,4.12l2.52,2.33,4.02,5.62c3.27,10.81,12.64,17.7,22.48,22.65l.47,2.09.32,1.74c-3.76-1.56-7.5-2.97-11.15-4.97-8.17-4.46-14.36-11.51-16.07-20.79ZM19.95,162.58c1.69,1.36,3.08,2.54,4.68,3.71l1.87,1.38c5.64,11.45,17.77,18.09,29.74,21.5l2.39,2.72,3.06,3.19c-9.46-1.58-18.26-4.95-26.03-10.38-7.98-5.58-13.23-12.56-15.7-22.12ZM45.11,206.85c-2.34-2.36-3.38-4.78-2.39-8.01,2.81,2.3,3.22,4.58,2.39,8.01ZM52.02,200.76c-3.99-2.54-7.25-5.49-10.06-9.58-.14,2.72,1.03,4.88,1.98,7.29-1.3-.55-1.63-1.78-2.21-2.89-1.16-2.9-2.52-5.4-4.3-8.33,2.74,1.53,5.39,2.86,8.07,4.15,2.87,3.04,6.08,5.32,9.62,7.26,7.96,4.38,18.12,5.71,27.16,4.81.58-.06,1.24.7,1.63.97l3.68,2.52c-12.18,1.69-25,.51-35.57-6.21ZM58.43,205.27c3.41,1.03,6.47,2.17,9.9,2.63,2,1.52,4.04,2.6,6.12,3.72,6.57,2.68,13.38,3.79,20.55,2.42,5-.96,9.6-2.34,14.07-4.82l10.63-5.91,4.2-2.5,4.33,2.04c-4.37,3.61-8.9,6.38-13.77,8.91l-10.33,4.61c-17.52,6.27-32.85,2.18-45.69-11.09ZM138.03,222.72c-14.49,6.71-28.27,4.54-42.26-2.98l6.46-1.53,5.59,2.09c12.87,4.81,26.66.68,37.54-7.19l4.95-3.58,7.06-.09c-5.72,5.38-12.16,9.95-19.36,13.28ZM164.36,217.19c-6.21,2.52-12.86,3.8-19.65,3.47l6.58-4.58c7.67-.72,14.7-3.68,20.76-8.47,11.41-9.02,16.16-21.72,18.58-35.72l4.89-3.3c.23.67-.02,1.13-.11,1.7-.88,6.04-2.03,11.85-4.13,17.57-4.82,13.14-13.9,24.05-26.92,29.33ZM219.78,161.96c-1.05,4.08-2.94,7.79-5.34,11.12-.61.84-1.15,1.69-2.13,2.37l1.14-3.53,1.18-7.76c1.21-2.16,2.18-4.33,2.66-6.81.58-3.86-.98-9.5-3.79-12.65.39,6.78.88,12.98.12,19.46-2.15,18.3-10.73,30.95-28.05,37.17l3.98-6.81c8.51-4.03,14.78-11.22,17.41-20.27,2.13-7.32,2.7-14.73,2.27-22.36-.32-5.74-.96-11.16-2.53-16.65-1.26-4.43-3.32-8.35-5.29-12.47l-1.96-4.09c-4.06-8.49-7.15-20.24-5.18-29.72l4.52,4.86c.5,10.16,2.39,17.03,7.38,26.03,1.97,3.55,3.3,7.13,4.78,10.92l3.31,8.45,4.45,8.62c1.85,4.62,2.32,9.26,1.07,14.12ZM215.01,157.19c.4-.39.72-.71,1.33-.94-.14,1.87-.62,3.36-1.3,4.89l-.03-3.96ZM219.72,147.24l5.49-8.84c-.55,4.18-2.5,7.62-4.59,11.19-.63-.78-.76-1.53-.9-2.36ZM229.83,142.16c-.74,2.29-1.59,4.5-2.79,6.64-1.63,2.82-3.33,5.42-5.51,7.92-.05-2.07-.12-3.75-.7-5.72,9.8-13.45,7.29-30.82-1.45-44.33-1.98-3.06-4.18-5.67-6.51-8.42l-5.52-6.53c-2.09-2.47-3.95-4.96-5.42-7.83l.71-4.51c1.71,1.36,2.87,2.94,4.01,4.69,2.08,3.21,4.5,5.96,7.1,8.74,4.61,4.94,8.58,10.28,11.84,16.24,3.1,5.67,4.91,11.54,5.66,17.94.61,5.21.18,10.22-1.41,15.16ZM220.08,98.88l-4.6-5.86-.53-10.49c.56.56,1.38.99,1.7,1.71,1.81,4,3.97,10.27,3.43,14.64ZM218.79,86.73c.95.73,1.35,1.63,2.17,2.56.1,1.49.01,2.73-.16,4.04l-2.01-6.6ZM221.11,100.28l.99-9.17c1.49,2.81,3.2,5.56,3.79,8.73.38,2.05-.71,4.08-.91,6.13l-3.87-5.69ZM230.75,96.41c2.67,7.53,2.94,16.23.3,23.65l-2.56-7.23c.54-6.13-.55-12.06-3.17-17.65-1.81-4.62-4.67-8.49-8.15-11.98l-8.57-8.59-.23-.18c-1.49-1.16-3.23-2.24-4.43-3.91-.6-.84-.22-2.27-.29-3.15l-.2-2.61,5.45,3.69c3.2,2.17,6.12,4.36,8.82,7.16,5.77,5.99,10.24,12.94,13.03,20.79ZM212.02,64.55c2.12,1.34,3.71,3.22,5.23,5.23l.46,4.37-4.82-4.16-.87-5.44ZM218.44,71.79c1.1,1.61,1.77,3.31,2.32,5.48-.8-.37-1.12-1.09-1.76-1.68l-.56-3.8ZM237.87,102.05c-3.03-1.28-5.04-4.68-4.65-8.3,3.07,1.49,4.84,4.44,4.65,8.3ZM235.7,93.68c-3.73-1.15-6.53-3.85-8.47-7.2-1.48-2.55-3-4.87-5-7.05-.76-5.61-3.57-10.42-7.75-14.22-8.77-7.97-18.83-10.33-30.18-12.44-12.2-2.26-25.48-4.77-36.27-10.83-4.39-2.47-8.4-5.18-12.4-8.21l6.72-1.12,6.02,3.55c5.33,3.15,11.04,5.24,17.1,6.63l13.22,3.03c11.2,2.57,20.81,4,31.23,9.82,6.87,3.84,11.78,8.89,15.1,15.95,1.62,3.44,1.97,7.1,2.61,10.91.45,2.67,1.98,5.19,3.7,7.15,2.07,2.36,4.56,3.71,7.79,4.16-1.11.58-2.29.22-3.43-.13Z"/>
    </g>
  </g>
</svg>