<?xml version="1.0" encoding="UTF-8"?>
<svg id="Ebene_1" data-name="Ebene 1" xmlns="http://www.w3.org/2000/svg" viewBox="0 0 165.94 240">
  <defs>
    <style>
      .cls-1 {
        fill: #70040a;
      }

      .cls-2 {
        fill: #a57b6b;
      }

      .cls-3 {
        fill: #2f894f;
      }

      .cls-4 {
        fill: #cc0a1e;
      }

      .cls-5 {
        fill: #a8060e;
      }

      .cls-6 {
        fill: #e00813;
      }

      .cls-7 {
        fill: #fff;
      }

      .cls-8 {
        fill: #1f5c35;
      }
    </style>
  </defs>
  <g>
    <path class="cls-3" d="M156.48,88.87c-.19-10.31,12.42-19.79,6.99-29.37-2.96-5.09-10.82-7.77-16.2-13.63-6.18-6.05-6.87-15.26-8.63-23.12-3.98-14.91-20.83-3.77-32.18-8.73-8.2-2.48-14-11.31-20.17-13.45-11.55-4-17.4,14.06-32.81,14.74-7.68.77-15.2-2.04-20.32.07-10.21,4.07-3.89,21.23-15.54,31.49-5.1,5.42-14.28,7.85-16.38,15.46-1.35,6.25,3.43,11.94,5.76,17.59,7.3,15.97-4.06,24.51-6.83,37.86-1.87,12.81,11.95,17.66,19.06,26.8,2.92,3.68,4.7,8.13,5.13,12.81,1.27,9.95-4.77,22.51,3.59,30.34,7.95,6.8,22.54,6.18,31.88,13.95,4.63,3.34,8.38,7.95,11.71,12.46,2.74,3.62,5.73,7.91,9.79,9.09,8.7,1.72,13.3-12.06,21.1-18.54,2.74-2.57,5.85-4.75,9.21-6.45,5.87-3.07,12.7-4.27,18.82-6.35,18.73-6.26,9.16-21.59,11.32-36.4,1.18-8.18,7.27-14.28,13.5-19.18,23.4-18.12.95-26.87,1.19-47.22v-.23Z"/>
    <path class="cls-8" d="M83.9,240c-1.79,0-3.39-1.26-3.75-3.08-12.5-62.79-11.5-128.95,2.89-191.33.48-2.06,2.53-3.35,4.59-2.87,2.06.48,3.35,2.53,2.87,4.59-14.15,61.33-15.13,126.38-2.84,188.11.41,2.08-.93,4.09-3.01,4.51-.25.05-.5.07-.75.07Z"/>
    <path class="cls-8" d="M76.15,192.63c-.76,0-1.54-.23-2.21-.7-10.41-7.37-21.63-17.18-29.27-25.59-1.42-1.57-1.31-3.99.26-5.41,1.57-1.42,3.99-1.31,5.41.26,7.3,8.03,18.03,17.41,28.03,24.49,1.73,1.22,2.14,3.61.91,5.34-.75,1.05-1.93,1.62-3.13,1.62Z"/>
    <path class="cls-8" d="M76.16,164.74c-1.28,0-2.53-.64-3.26-1.81-1.12-1.8-.56-4.16,1.23-5.28l28.2-17.51c1.8-1.12,4.16-.56,5.28,1.23s.56,4.16-1.23,5.28l-28.2,17.51c-.63.39-1.33.58-2.02.58Z"/>
    <path class="cls-8" d="M74.78,130.76c-.63,0-1.27-.19-1.83-.58-8.56-6.01-17.02-12.39-25.14-18.98-1.37-1.11-1.58-3.12-.47-4.49,1.11-1.37,3.12-1.58,4.49-.47,8,6.49,16.34,12.79,24.78,18.71,1.44,1.01,1.79,3,.78,4.45-.62.89-1.61,1.36-2.62,1.36Z"/>
    <path class="cls-8" d="M78.61,95.5c-1.05,0-2.09-.52-2.69-1.48-.95-1.49-.51-3.46.98-4.41,9.69-6.18,19.26-12.83,28.45-19.75,1.41-1.06,3.41-.78,4.47.63,1.06,1.41.78,3.41-.63,4.47-9.32,7.03-19.03,13.77-28.86,20.04-.53.34-1.13.5-1.71.5Z"/>
    <path class="cls-8" d="M82.31,69.85c-.53,0-1.07-.17-1.53-.51-5.14-3.84-9.87-8.25-14.06-13.11-.92-1.07-.8-2.68.26-3.6s2.68-.8,3.6.26c3.95,4.58,8.41,8.73,13.25,12.35,1.13.84,1.36,2.44.52,3.57-.5.67-1.27,1.02-2.05,1.02Z"/>
  </g>
  <g>
    <path class="cls-7" d="M108.46,94.66c-.8-1.4-1.21-2.98-1.21-4.59h0c0,.29,0,1.44,0,2.5t0,0c0-.46,0-1.02,0-1.68-.13-4.14.36-8.07-.46-12.02-.89-3.5-3.08-4.35-4.87-7.67l-.04-.08c-2.48-4.55-2.96-11.4-4.62-16.49v-.02c-.29-1.04-.2-2.14.26-3.11l2.59-5.55c.91-1.95,1.58-4.01,2.01-6.11.25-1.22.92-2.31,1.88-3.1,1.72-1.41,2.81-3.56,2.76-5.97-.08-3.9-3.28-7.17-7.18-7.33-4.28-.17-7.81,3.25-7.81,7.49,0,1.38.37,2.67,1.02,3.78s.72,2.52.18,3.71h0c-1.12,2.49-1.99,5.08-2.6,7.74l-.1.44c-.26-.1-.52-.2-.79-.3-3.71-1.61-7.84-1.56-11.53.08-.35.13-.69.27-1.03.42l-.78-1.72c-.58-1.29-1.08-2.63-1.48-3.99l-.73-2.48c-.45-1.52-.39-3.17.26-4.62.54-1.21.77-2.58.59-4.03-.42-3.38-3.19-6.11-6.58-6.48-4.53-.5-8.36,3.03-8.36,7.45,0,2.41,1.14,4.56,2.91,5.93,1.43,1.1,2.51,2.6,2.98,4.34.9,3.29,2.42,8.31,4.04,11.05h0c.55.92.69,2.04.39,3.07-2.2,7.52-2.11,14.51-8.03,20.63-.39.52-.71,1.13-.96,1.81-.73,1.93-1.95,3.64-3.45,5.06-8.53,8.12-12.64,21.79-13.84,33.88-1.34,10.86-1.34,22.52,3.59,32.45,2.41,4.65,5.68,8.83,8.67,13.09,1.21,1.69,2.36,3.21,3.49,4.59,1.34,1.64,2.31,3.54,2.89,5.58,3.64,12.69,9.06,25.1,15.42,34.8,1.99,3.03,4.93,6.42,8.41,6.95,2.03.31,3.96-.67,5.36-2.13,3.28-3.42,5.44-10.52,6.87-15.49,1.93-6.72,4.11-13.29,6.56-19.77.81-2.14,1.98-4.12,3.43-5.9,1.22-1.5,2.39-3.2,3.58-5.11,3.83-5.85,7.99-11.73,9.66-18.63,4.09-18.07-4.36-36.8-13.32-52.46Z"/>
    <path class="cls-2" d="M100.6,71.82c-2.31-4.23-2.75-10.59-4.3-15.33-1.15-4.17-3.53-6.45-7.25-7.74-3.45-1.5-7.29-1.45-10.72.07-3.11,1.14-5.47,3.02-6.61,6.36-2.73,7.74-2.07,14.91-8.09,21.13-1.11,1.47-1.62,3.81-1.63,5.94-.09,13.97,0,8.44-.03,22.63-.3,8.59,2.63,9.72,10.63,9.76,6.03.05,12.05.01,18.08.02,3.98-.15,8.7.47,12.23-1.32,3.03-2.1,2.55-5.05,2.69-9.23,0-3.12,0-6.95,0-11.16,0-11.03,0,7.89,0-2.76-.12-3.85.33-7.5-.43-11.18-.83-3.26-2.87-4.04-4.53-7.13l-.04-.08Z"/>
    <path class="cls-2" d="M89.59,60.65c6.43-8.55,10.71-18.46,12.53-29.01.57-3.32-4.51-4.75-5.09-1.4-1.75,10.16-5.8,19.51-12,27.75-2.04,2.71,2.54,5.35,4.56,2.66h0Z"/>
    <path class="cls-2" d="M81.86,57.98c-6.2-8.23-10.25-17.59-12-27.75-.58-3.34-5.66-1.92-5.09,1.4,1.82,10.54,6.1,20.46,12.53,29.01,2.02,2.68,6.6.05,4.56-2.66h0Z"/>
    <circle class="cls-2" cx="67.31" cy="30.94" r="5.8"/>
    <circle class="cls-2" cx="99.24" cy="30.94" r="5.8"/>
    <path class="cls-2" d="M97,193.52c3.01-10.49,6.68-20.57,11.19-30.53l5.86-12.2,1.37-3.11c-1.29,1.01-2.12,2.35-3.6,3.02l-3.42,1.53c-2.35.75-4.7,1.15-7.07,1.38h-2.42c-2.54-.24-5-.98-7.06-2.72-12.9,3.19-23.7-4.65-30.84-14.95-.17.12-.18.25-.24.32-.43,3.31-.51,6.59-.4,10.01.64,18.46,8.07,41.43,18.15,56.78,1.78,2.71,4.42,5.75,7.53,6.22,1.82.28,3.54-.6,4.8-1.91,2.94-3.06,4.87-9.41,6.15-13.87Z"/>
    <path class="cls-6" d="M99.87,117.02c-1.86,1.97-3.44,4.1-4.96,6.48q-.24.3-.45.72c-2.09,3.39-3.72,7-4.99,10.84q-.09.28-.2.51c-1.83,6.12-2.64,12.18-2.08,18.43.09.46.07.41.14.82.19,1.55.57,2.9,1.09,4.32.08.22.1.31.19.5l.76,1.59q.11.2.2.31l1.1,1.46.25.24c1.14,1.31,2.43,2.26,4.08,2.92-6.97,4.91-15.25,4.54-22.8,1.33-5.84-2.48-10.97-6.11-15.35-10.65-.6-.12-1.36-.76-1.16-1.4l-.78-.95c-.11.06-.26.14-.34.08-.48-.37-.97-1.41-1.1-2.01l-.49-.77-1.4-2.45c-3.56-7.01-3.92-14.81-3.66-22.64.15-4.73.35-9.31,1.15-13.93-.5-.61-.03-1.79.41-2.39l.07-.33v-.21c-.48-.17-.15-.87.26-1.1,1.65-8.24,5.75-16.91,12.07-22.56,3.68-3.29,8.01-5.54,12.84-6.52,5.42-1.1,10.74-.22,15.55,2.44,11.31,6.25,19.13,18.16,20.8,31.01l-1.93-.34q-.34.03-.62,0c-.38.01-.61.03-.92-.06-.18.11-.31.03-.52.12l-1.43.37c-.17.04-.28.11-.63.24l-2.34,1.25c-.22.12-.31.17-.59.37l-1.47,1.23-.76.7Z"/>
    <path class="cls-1" d="M119.12,142.73c.67-2.58.44-5.06-.79-7.35,1.17-5.6.67-11.36-1.63-16.52-1.04-2.34-2.66-4.19-4.9-5.39-.29-4.72-1.44-9.29-3.32-13.53-.73-3-2.63-5.84-4.47-8.33-6.02-8.16-15.38-15.05-25.84-14.69-8.66.3-16.54,4.93-21.92,11.62-1.67,2.07-4.27,5.79-5.12,8.23-.04.13-.04.24-.01.37,0,.28-.07.59-.22.93-3.39,7.6-4.5,15.84-4.99,24.06l-.17,2.84-.07,9.1.24,1.86c.42,3.99,1.09,7.88,2.57,11.61l1.16,2.5,1.91,3.22,1.27,1.77,1.73,2.13c3.18,3.57,6.91,6.49,11.04,8.92.22.13.48.57.52.56.79,1.05,7.08,3.33,8.54,3.75,7.4,2.13,15.37,1.57,21.41-3.6,1.66.51,4.64.44,6.2-.36l.65-.26c.42-.12,2.23-1.14,2.34-1.2,3.06-1.65,6.56-4.97,7.82-8.26l.52-1.6c1.75-1.18,3.18-2.62,4.49-4.28,2.03-2.58,3.74-5.92,1.04-8.12ZM110.72,112.74c-.03.06-1.22-.17-1.24-.22-.82-.14-2.18.02-2.75.09-.04,0-.73.1-.82.14-.93.34-1.23.54-1.23.54l-1.75.93c-.5.28-.58.32-1.11.76-.31.17-.69.44-1.1.79l-1.23,1.2c-1.68,1.84-3.24,3.81-4.53,5.95-.09.08-.25.49-.78,1.31-2.14,3.25-3.78,6.89-4.89,10.62-.1.36-.16.58-.22.88-.77,2.07-1.36,4.48-1.73,6.74-.61,3.72-.9,7.67-.36,11.4,0,0,.03.66.13,1.16-.01.55,1.11,4.35,1.35,5.05.06,0,.48,1.02.51,1.07.21.41.25.46.54.85l.73.96c.35.44.23.29.61.72,1.04,1.04,2.18,1.92,3.41,2.63-12.47,7.99-27.37-.1-36.88-9.22l-4.22-5.63c-.05-.19-1.08-1.98-1.22-2.13-.06-.07-.43-.85-.43-.85-4.75-10.68-3.47-23.13-2.3-34.52.04-.39.91-5.54.91-5.54,2.74-11.42,9.06-22.86,20.56-27.22,7.14-2.71,14.05-2.06,20.58,1.86,9.34,5.62,15.96,14.93,18.63,25.45.18.72.97,3.97.84,4.25Z"/>
    <path class="cls-4" d="M106.81,154.96l.58.32c1.52.81,3.09,1.04,4.85.52-.95,2.58-3.72,4.87-6.03,6.37-3.37,2.19-7.47,3.99-11.2,1.7l-1.58-1.3c-1.45-1.19-2.41-2.9-3.02-4.61-2.06-5.8-.66-15.74,1.3-21.75l.54-1.61c2.11-5.7,4.97-10.92,8.86-15.4,1.36-1.56,2.93-2.75,4.72-3.59,2.58-1.21,5.36-.67,7.28,1.4,3.65,3.94,4.85,11.78,4.29,17.15-.96-.82-1.79-1.31-2.93-1.47-.39-.06-.44-.07-.72-.07-.49.05-.71.09-1.23.24-.17.04-.46.2-.58.24-1.01.41-1.78.97-2.62,1.63-.38.28,0,0-.75.64-4.53,3.98-6.79,11.79-4.02,17.06.53,1.01,1.36,1.7,2.28,2.54Z"/>
    <path class="cls-5" d="M114.83,150.71c-1.21.53-1.48-1.71-.51-3.61.87-1.7,2.06-3.97,3.66-3.62.5.11,1,.55,1.17,1.22.27,1.11-.06,2.2-.68,3.2-1.44,2.31-3.31,4.37-5.58,5.88-1.13.75-2.45.98-3.75.56-2.06-.68-3.52-2.43-3.97-4.65-1.15-5.63,1.61-11.98,6.63-15.05,1.17-.72,2.6-1.02,3.81-.32,2.66,1.53,3.39,5,2.97,8.12-1.19-.27-2.25.05-3.03.97-1.21,1.42-2.07,3.2-2.4,5.05-.23,1.3.51,2.77,1.3,2.67.16-.02.42-.2.39-.41Z"/>
  </g>
</svg>