<?xml version="1.0" encoding="UTF-8"?>
<svg id="Ebene_1" data-name="Ebene 1" xmlns="http://www.w3.org/2000/svg" viewBox="0 0 165.94 240">
  <defs>
    <style>
      .cls-1 {
        fill: #2f894f;
      }

      .cls-2 {
        fill: #1f5c35;
      }
    </style>
  </defs>
  <path class="cls-1" d="M156.48,88.87c-.19-10.31,12.42-19.79,6.99-29.37-2.96-5.09-10.82-7.77-16.2-13.63-6.18-6.05-6.87-15.26-8.63-23.12-3.98-14.91-20.83-3.77-32.18-8.73-8.2-2.48-14-11.31-20.17-13.45-11.55-4-17.4,14.06-32.81,14.74-7.68.77-15.2-2.04-20.32.07-10.21,4.07-3.89,21.23-15.54,31.49-5.1,5.42-14.28,7.85-16.38,15.46-1.35,6.25,3.43,11.94,5.76,17.59,7.3,15.97-4.06,24.51-6.83,37.86-1.87,12.81,11.95,17.66,19.06,26.8,2.92,3.68,4.7,8.13,5.13,12.81,1.27,9.95-4.77,22.51,3.59,30.34,7.95,6.8,22.54,6.18,31.88,13.95,4.63,3.34,8.38,7.95,11.71,12.46,2.74,3.62,5.73,7.91,9.79,9.09,8.7,1.72,13.3-12.06,21.1-18.54,2.74-2.57,5.85-4.75,9.21-6.45,5.87-3.07,12.7-4.27,18.82-6.35,18.73-6.26,9.16-21.59,11.32-36.4,1.18-8.18,7.27-14.28,13.5-19.18,23.4-18.12.95-26.87,1.19-47.22v-.23Z"/>
  <path class="cls-2" d="M83.9,240c-1.79,0-3.39-1.26-3.75-3.08-12.5-62.79-11.5-128.95,2.89-191.33.48-2.06,2.53-3.35,4.59-2.87,2.06.48,3.35,2.53,2.87,4.59-14.15,61.33-15.13,126.38-2.84,188.11.41,2.08-.93,4.09-3.01,4.51-.25.05-.5.07-.75.07Z"/>
  <path class="cls-2" d="M76.15,192.63c-.76,0-1.54-.23-2.21-.7-10.41-7.37-21.63-17.18-29.27-25.59-1.42-1.57-1.31-3.99.26-5.41,1.57-1.42,3.99-1.31,5.41.26,7.3,8.03,18.03,17.41,28.03,24.49,1.73,1.22,2.14,3.61.91,5.34-.75,1.05-1.93,1.62-3.13,1.62Z"/>
  <path class="cls-2" d="M76.16,164.74c-1.28,0-2.53-.64-3.26-1.81-1.12-1.8-.56-4.16,1.23-5.28l28.2-17.51c1.8-1.12,4.16-.56,5.28,1.23,1.12,1.8.56,4.16-1.23,5.28l-28.2,17.51c-.63.39-1.33.58-2.02.58Z"/>
  <path class="cls-2" d="M74.78,130.76c-.63,0-1.27-.19-1.83-.58-8.56-6.01-17.02-12.39-25.14-18.98-1.37-1.11-1.58-3.12-.47-4.49,1.11-1.37,3.12-1.58,4.49-.47,8,6.49,16.34,12.79,24.78,18.71,1.44,1.01,1.79,3,.78,4.45-.62.89-1.61,1.36-2.62,1.36Z"/>
  <path class="cls-2" d="M78.61,95.5c-1.05,0-2.09-.52-2.69-1.48-.95-1.49-.51-3.46.98-4.41,9.69-6.18,19.26-12.83,28.45-19.75,1.41-1.06,3.41-.78,4.47.63,1.06,1.41.78,3.41-.63,4.47-9.32,7.03-19.03,13.77-28.86,20.04-.53.34-1.13.5-1.71.5Z"/>
  <path class="cls-2" d="M82.31,69.85c-.53,0-1.07-.17-1.53-.51-5.14-3.84-9.87-8.25-14.06-13.11-.92-1.07-.8-2.68.26-3.6,1.07-.92,2.68-.8,3.6.26,3.95,4.58,8.41,8.73,13.25,12.35,1.13.84,1.36,2.44.52,3.57-.5.67-1.27,1.02-2.05,1.02Z"/>
</svg>