<?xml version="1.0" encoding="UTF-8"?>
<svg id="Ebene_1" data-name="Ebene 1" xmlns="http://www.w3.org/2000/svg" viewBox="0 0 180.44 240">
  <defs>
    <style>
      .cls-1 {
        fill: #2f894f;
      }

      .cls-2 {
        fill: #e00813;
      }

      .cls-3 {
        fill: #fff;
      }

      .cls-4 {
        fill: #1f5c35;
      }
    </style>
  </defs>
  <g>
    <path class="cls-1" d="M174.91,165.01c-.56,2.87,1.88,6.39,1.13,9.12-.78,2.81-4.69,4.58-5.66,7.22-.84,2.33,1.18,5.79.19,7.97-1.04,2.26-4.97,3.01-6.14,5.12-1.2,2.17.26,5.9-1.08,7.91-1.37,2.06-5.37,2.14-6.89,4.03-1.53,1.91-.75,5.85-2.42,7.6-1.59,1.66-5.44.94-7.14,2.44-1.72,1.51-1.5,5.42-3.33,6.78-1.85,1.35-9.85,6.28-11.89,7.32-2.04,1.02-10.87,4.59-13.14,5.29-2.23.7-11.65,2.82-14.01,3.17-1.58.22-6.57.62-10.33.84-1.75.11-3.22.18-3.97.18-.51,0-1.35-.03-2.39-.1-3.79-.18-10.11-.67-11.92-.92-2.34-.35-11.78-2.47-14.01-3.17-2.26-.7-11.1-4.27-13.14-5.29-2.04-1.04-10.04-5.96-11.89-7.32-1.83-1.36-1.59-5.26-3.32-6.78-1.71-1.5-5.56-.78-7.16-2.44-1.67-1.75-.88-5.69-2.42-7.6-1.51-1.9-5.52-1.98-6.89-4.03-1.34-2.01.11-5.74-1.08-7.91-1.16-2.1-5.1-2.85-6.12-5.1-1-2.2,1.02-5.66.18-7.99-.97-2.65-4.88-4.42-5.66-7.24-.75-2.71,1.69-6.23,1.13-9.1-.54-2.76-4.13-5.1-4.5-8-.33-2.79,2.57-5.95,2.39-8.86C3.27,145.32,0,142.55,0,139.62c0-3.3,3.36-6.46,3.71-9.8.33-3.28-2.31-7.05-1.66-10.35.64-3.24,4.51-5.75,5.4-8.99.89-3.17-1.15-7.32-.03-10.47,1.1-3.12,5.28-5.09,6.57-8.18,1.34-3.16-.14-7.59,1.35-10.68,1.5-3.08,5.91-4.67,7.56-7.67,1.66-3.01.62-7.59,2.41-10.51,1.8-2.93,6.34-4.11,8.24-6.93,1.93-2.87,1.31-7.51,3.32-10.23,1.77-2.39,6.09-2.79,7.88-5.05,1.87-2.34,1.29-6.63,3.16-8.82,1.98-2.28,6.31-2.33,8.26-4.42,2.07-2.22,1.87-6.55,3.89-8.51,2.22-2.14,6.52-1.77,8.64-3.59,1.39-1.18.72-4.77,2.04-5.8,1.45-1.13,4.75.4,6.12-.54,1.55-1.05,1.34-4.69,2.76-5.5,1.67-.94,4.61,1.18,6.07.62C87.6,3.46,88.75,0,90.23,0s2.61,3.46,4.53,4.19c1.47.56,4.4-1.56,6.09-.61,1.42.8,1.21,4.43,2.76,5.48,1.35.94,4.65-.59,6.11.56,1.32,1.02.67,4.61,2.04,5.79,2.12,1.82,6.42,1.45,8.64,3.59,2.02,1.96,1.82,6.3,3.89,8.51,1.94,2.07,6.28,2.14,8.24,4.42,1.88,2.18,1.31,6.47,3.17,8.82,1.79,2.26,6.11,2.65,7.88,5.05,2.01,2.73,1.39,7.37,3.32,10.23,1.9,2.82,6.44,4,8.24,6.93,1.79,2.92.75,7.49,2.41,10.51,1.64,3,6.06,4.57,7.56,7.67,1.51,3.09.03,7.52,1.35,10.68,1.29,3.09,5.47,5.05,6.57,8.18,1.12,3.16-.92,7.29-.03,10.47.89,3.24,4.77,5.75,5.4,8.99.65,3.3-1.99,7.06-1.66,10.35.35,3.35,3.71,6.5,3.71,9.8,0,2.93-3.27,5.71-3.43,8.51-.18,2.93,2.74,6.07,2.39,8.88-.37,2.9-3.95,5.24-4.5,8Z"/>
    <path class="cls-4" d="M120.49,195.47c-8.4,7.04-17.95,12.61-27.82,17.38h0c-.22-8.93-.19-17.87-.03-26.83.21-12.08.67-24.2,1.07-36.31,11.25-1.42,20.79-8.36,27.6-16.92,5.93-7.5,9.91-15.99,13.63-24.49.09-.21-.21-.36-.32-.16-9,16.15-21.14,33.93-40.71,35.2.65-20.75,1-41.53-.4-62.23,7.91-3.62,14.84-9.25,20.18-16.08,2.12-2.81,3.91-5.9,4.86-9.26-4.35,10.35-14.62,18.29-25.25,22.46h-.02c-.47-8.43-1.73-16.84-2.75-25.25-.08-.77-.18-1.51-.26-2.26-1.1-9.66-1.72-19.34-.32-29.05-1.69,9.58-1.36,19.21-.57,28.84-6.85-1.72-12.37-7.92-14.47-14.73,1.64,7.57,7.13,14.65,14.67,16.93.7,7.91,1.64,15.8,1.98,23.67.05.81.08,1.64.11,2.46.05,1,.1,2.02.13,3.04.35,9.75.32,19.49.06,29.23-15.88.53-29.48-11.68-35.25-26.17-.07-.18-.35-.09-.3.1,4.69,15.84,18.02,29.74,35.39,30.83h0c-.72,21.58-2.47,43.14-3.59,64.71-4.79.46-10.07-2.88-14.41-5.24-15.92-9.14-29.45-22.06-39.45-37.62-.07-.11-.24-.02-.18.1,8.41,16.7,21.08,31.55,36.38,42.54,5.25,3.61,10.49,7.68,17.29,8h0c-.77,17.16-1,34.34.1,51.56,1.04.06,1.88.1,2.39.1.75,0,2.22-.06,3.97-.18-.57-6.14-.99-12.29-1.24-18.47,16.54-9.74,32.52-21.87,42.31-38.64,3.44-5.57,9.75-16.81,9.48-17.08s-14.41,21.62-24.25,29.84Z"/>
  </g>
  <g>
    <path class="cls-3" d="M144.91,131.95c0,19.91-10.64,37.33-26.53,46.89-8.22,4.95-17.35-20.14-27.64-20.14s-20.44,25.09-28.66,20.14c-15.9-9.56-26.53-26.99-26.53-46.89,0-30.2,24.48-54.68,54.68-54.68s54.68,24.48,54.68,54.68Z"/>
    <circle class="cls-3" cx="90.22" cy="131.77" r="50"/>
    <circle cx="90.22" cy="131.77" r="47.22"/>
    <circle class="cls-3" cx="90.41" cy="87.86" r="29.63"/>
    <circle cx="90.41" cy="87.86" r="26.87"/>
    <path class="cls-2" d="M142.17,131.77c0,18.91-10.1,35.46-25.21,44.54-7.81,4.7-16.96-31.13-26.74-31.13s-18.93,35.83-26.74,31.13c-15.1-9.09-25.2-25.64-25.2-44.54,0-28.69,23.26-51.95,51.95-51.95s51.95,23.26,51.95,51.95Z"/>
    <circle cx="61.37" cy="152.31" r="8.22"/>
    <circle cx="119.07" cy="152.31" r="8.22"/>
    <circle cx="61.37" cy="113.64" r="8.22"/>
    <circle cx="119.07" cy="113.64" r="8.22"/>
    <circle cx="90.22" cy="130.18" r="8.22"/>
    <circle cx="90.22" cy="97.09" r="8.22"/>
  </g>
</svg>