<?xml version="1.0" encoding="UTF-8"?>
<svg id="Ebene_1" data-name="Ebene 1" xmlns="http://www.w3.org/2000/svg" viewBox="0 0 163.93 240">
  <defs>
    <style>
      .cls-1 {
        fill: #600000;
      }

      .cls-2 {
        fill: #fff;
      }

      .cls-3 {
        fill: maroon;
      }

      .cls-4 {
        fill: #fcb03f;
      }
    </style>
  </defs>
  <g>
    <path class="cls-4" d="M44.41,234.75c0-8.96,5.68-14.52,14.44-14.52s14.44,5.56,14.44,14.52c0,4.97-5.68,5.25-14.44,5.25s-14.44.35-14.44-5.25Z"/>
    <path class="cls-4" d="M90.64,234.75c0-8.96,5.68-14.52,14.44-14.52s14.44,5.56,14.44,14.52c0,4.97-5.68,5.25-14.44,5.25s-14.44.35-14.44-5.25Z"/>
  </g>
  <g>
    <path class="cls-1" d="M163.93,142.37c0,33.5-5.02,60.66-12.7,60.66s-12.7-27.16-12.7-60.66,5.02-49.55,12.7-49.55,12.7,16.05,12.7,49.55Z"/>
    <path class="cls-1" d="M25.4,142.37c0,33.5-5.02,60.66-12.7,60.66S0,175.87,0,142.37s5.02-49.55,12.7-49.55,12.7,16.05,12.7,49.55Z"/>
  </g>
  <path class="cls-3" d="M153.44,124.94c0,78.08-23.26,105.17-71.48,105.17S10.49,203.02,10.49,124.94c0-59.13,23.26-100.74,71.48-100.74s71.48,41.61,71.48,100.74Z"/>
  <g>
    <path class="cls-3" d="M80.42,52.73c7.35,23.23-2.47,47.05-21.95,53.22-19.47,6.17-41.22-7.66-48.58-30.89C2.54,51.83,17.76,0,24.93,0s48.14,29.5,55.49,52.73Z"/>
    <path class="cls-3" d="M83.51,52.73c-7.35,23.23,2.47,47.05,21.95,53.22,19.47,6.17,41.22-7.66,48.58-30.89,7.35-23.23-7.86-75.06-15.03-75.06s-48.14,29.5-55.49,52.73Z"/>
  </g>
  <g>
    <path class="cls-4" d="M93.72,197.52c0,7.29-4.62,11.81-11.74,11.81s-11.74-4.52-11.74-11.81c0-4.04,4.62-4.27,11.74-4.27s11.74-.29,11.74,4.27Z"/>
    <path class="cls-4" d="M70.46,173.86c0,7.29-4.62,11.81-11.74,11.81s-11.74-4.52-11.74-11.81c0-4.04,4.62-4.27,11.74-4.27s11.74-.29,11.74,4.27Z"/>
    <path class="cls-4" d="M116.96,173.86c0,7.29-4.62,11.81-11.74,11.81s-11.74-4.52-11.74-11.81c0-4.04,4.62-4.27,11.74-4.27s11.74-.29,11.74,4.27Z"/>
    <path class="cls-4" d="M93.72,151.5c0,7.29-4.62,11.81-11.74,11.81s-11.74-4.52-11.74-11.81c0-4.04,4.62-4.27,11.74-4.27s11.74-.29,11.74,4.27Z"/>
    <path class="cls-4" d="M70.46,127.84c0,7.29-4.62,11.81-11.74,11.81s-11.74-4.52-11.74-11.81c0-4.04,4.62-4.27,11.74-4.27s11.74-.29,11.74,4.27Z"/>
    <path class="cls-4" d="M116.96,127.84c0,7.29-4.62,11.81-11.74,11.81s-11.74-4.52-11.74-11.81c0-4.04,4.62-4.27,11.74-4.27s11.74-.29,11.74,4.27Z"/>
  </g>
  <g>
    <g>
      <ellipse class="cls-4" cx="56.65" cy="67.91" rx="27.51" ry="29.41"/>
      <ellipse class="cls-4" cx="107.28" cy="67.91" rx="27.51" ry="29.41"/>
    </g>
    <path d="M90.86,79.01c0,6.59-3.98,21.71-8.9,21.71s-8.9-15.12-8.9-21.71,3.98-9.66,8.9-9.66,8.9,3.06,8.9,9.66Z"/>
    <g>
      <g>
        <g>
          <circle class="cls-2" cx="107.28" cy="67.91" r="12.56"/>
          <circle cx="107.28" cy="67.91" r="6.77"/>
        </g>
        <circle class="cls-2" cx="110.03" cy="65.85" r="2.06"/>
      </g>
      <g>
        <g>
          <circle class="cls-2" cx="56.65" cy="67.91" r="12.56"/>
          <circle cx="56.65" cy="67.91" r="6.77"/>
        </g>
        <circle class="cls-2" cx="58.71" cy="65.85" r="2.06"/>
      </g>
    </g>
  </g>
</svg>