<?xml version="1.0" encoding="UTF-8"?>
<svg id="Ebene_1" data-name="Ebene 1" xmlns="http://www.w3.org/2000/svg" viewBox="0 0 223.93 240">
  <defs>
    <style>
      .cls-1 {
        fill: #c3181b;
      }

      .cls-2 {
        fill: #a57b6b;
      }

      .cls-3 {
        fill: #afa829;
      }

      .cls-4 {
        fill: #e00813;
      }

      .cls-5 {
        fill: #fff;
      }

      .cls-6 {
        fill: #e95949;
      }

      .cls-7 {
        fill: #514f99;
      }

      .cls-8 {
        fill: #7293c6;
      }
    </style>
  </defs>
  <g>
    <g>
      <ellipse class="cls-6" cx="111.96" cy="60" rx="59.99" ry="60"/>
      <ellipse class="cls-6" cx="111.96" cy="180" rx="59.99" ry="60"/>
    </g>
    <g>
      <ellipse class="cls-8" cx="111.96" cy="60" rx="59.99" ry="60"/>
      <ellipse class="cls-8" cx="111.96" cy="180" rx="59.99" ry="60"/>
    </g>
    <g>
      <ellipse class="cls-8" cx="163.92" cy="90" rx="59.99" ry="60"/>
      <ellipse class="cls-8" cx="60.01" cy="150" rx="59.99" ry="60"/>
    </g>
    <g>
      <ellipse class="cls-8" cx="60.01" cy="90" rx="59.99" ry="60"/>
      <ellipse class="cls-8" cx="163.92" cy="150" rx="59.99" ry="60"/>
    </g>
    <g>
      <ellipse class="cls-3" cx="111.96" cy="85.05" rx="9.11" ry="34.96"/>
      <ellipse class="cls-3" cx="111.96" cy="154.96" rx="9.11" ry="34.96"/>
    </g>
    <g>
      <ellipse class="cls-3" cx="81.69" cy="102.52" rx="9.11" ry="34.95" transform="translate(-47.94 122.01) rotate(-60)"/>
      <ellipse class="cls-3" cx="142.23" cy="137.48" rx="9.11" ry="34.95" transform="translate(-47.95 191.91) rotate(-60)"/>
    </g>
    <g>
      <ellipse class="cls-3" cx="142.23" cy="102.52" rx="34.95" ry="9.11" transform="translate(-32.21 84.86) rotate(-30)"/>
      <ellipse class="cls-3" cx="81.69" cy="137.48" rx="34.95" ry="9.11" transform="translate(-57.8 59.27) rotate(-30)"/>
    </g>
    <circle class="cls-7" cx="111.96" cy="120" r="21.15"/>
  </g>
  <g>
    <path class="cls-5" d="M115.48,88.69c.69-5.22,5.69-8.86,6.69-9.58,3.89-2.83,8.64-3.25,8.96-2.6.07.15.01.56,0,.66-.07.48-.26.8-.37,1.01,0,0-.06.12-.59,1.58-.37,1.04-.07,3,.99,4.43,1.74,2.35,4.75,2.29,5.31,2.27,2.82-.12,5.35-2.08,6.26-4.43,1.51-3.92-1.7-8.45-4.65-10.54-5.58-3.94-13.35-1.35-17.41,1.13-6.09,3.72-7.89,9.68-8.75,12.51-.51,1.69-1.51,4.99,0,6.37.59.53,1.59.82,2.31.48,1.06-.51,1.1-2.25,1.24-3.29Z"/>
    <path class="cls-5" d="M108.91,88.69c-.69-5.22-5.69-8.86-6.69-9.58-3.89-2.83-8.64-3.25-8.96-2.6-.07.15-.01.56,0,.66.07.48.26.8.37,1.01,0,0,.06.12.59,1.58.37,1.04.07,3-.99,4.43-1.74,2.35-4.75,2.29-5.31,2.27-2.82-.12-5.35-2.08-6.26-4.43-1.51-3.92,1.7-8.45,4.65-10.54,5.58-3.94,13.35-1.35,17.41,1.13,6.09,3.72,7.89,9.68,8.75,12.51.51,1.69,1.51,4.99,0,6.37-.59.53-1.59.82-2.31.48-1.06-.51-1.1-2.25-1.24-3.29Z"/>
    <path class="cls-5" d="M171.35,91.07c-3.28-3.62-7.61-5.66-12.16-7.18-5.54-1.85-14.14-1.89-19.85-.39-6.55,1.72-12.61,4.63-17.17,9.71-.43.48-.63.99-1.34.87-1.29-2.39-3.36-4.25-6.27-5.17l-5.28-.31c-2.95.54-5.45,2.04-6.99,4.63-.64,0-.93-.46-1.34-.89-3.52-3.68-9.89-7.26-14.68-8.32l-5.54-1.23c-16.35-2.03-31.96,4.92-34.47,21.94-2.24,15.15,9.83,27.74,22.91,33.09-3.77,4.18-5.48,9.61-5.07,15.25.55,7.43,5.3,13.3,12.26,15.82,6.06,2.19,12.42,2.06,18.66.37,4.54-1.23,8.9-2.5,12.66-5.42,2.26,2.55,5.86,2.49,8.32.18,3.71,2.63,7.81,3.84,12.13,5.04,6.59,1.84,13.33,2.15,19.78-.33,4.67-1.79,8.49-4.96,10.44-9.61,3.01-7.16,1.57-15.12-3.35-21.22,8.4-4.04,16.5-10.01,20.61-18.88,4.29-9.27,2.61-20.39-4.25-27.97Z"/>
    <g>
      <path class="cls-4" d="M152.47,136.82c-1.33.64-3.25,1-4.93,1.39-7.79,1.82-15.81,1.39-23.53-.62-.65-.17-1.1-.79-1.86-.4l-.7-6.63-3.91-16.26c-.55-2.27-1.28-5.59.12-7.52,3.15-3.14,4.89-7.07,2.65-11.23.67.11.86-.37,1.26-.82,4.3-4.78,10-7.51,16.16-9.14,5.37-1.41,13.47-1.37,18.68.37,4.29,1.43,8.37,3.35,11.45,6.76,6.46,7.13,8.04,17.6,4,26.33-3.86,8.35-11.49,13.97-19.4,17.77Z"/>
      <path class="cls-4" d="M102.84,94.76c-2.11,3.54-1.36,8.49,1.82,11.19,1.03.87,1.78,1.56,1.77,3.06-.02,2.22-.49,4.37-1.07,6.58-1.8,6.78-3.3,13.5-3.66,20.5-.29.85-.84,1.35-1.69,1.5l-8.11,1.45c-6.92.61-13.89.29-20.23-2.3-12.31-5.04-23.67-16.89-21.56-31.15,2.36-16.02,17.06-22.57,32.45-20.66l5.21,1.15c4.51,1,10.51,4.37,13.82,7.83.39.41.66.84,1.26.84Z"/>
      <path class="cls-1" d="M107.92,161.23c-3.54,2.74-7.64,3.94-11.92,5.1-5.87,1.59-11.86,1.71-17.56-.35-6.56-2.37-11.03-7.9-11.54-14.89-.39-5.31,1.22-10.42,4.77-14.35,6.34,2.59,13.31,2.91,20.23,2.3l8.11-1.45c.85-.15,1.4-.65,1.69-1.5l-.27,2.18c.21,7.65,1.61,17.43,6.5,22.96Z"/>
      <path class="cls-1" d="M152.47,136.82c4.63,5.74,5.98,13.24,3.15,19.97-1.84,4.37-5.44,7.36-9.83,9.04-6.07,2.33-12.41,2.04-18.62.31-4.06-1.13-7.93-2.27-11.42-4.75,5.92-5.58,7.25-16.18,6.4-24.21.75-.39,1.21.23,1.86.4,7.72,2,15.74,2.44,23.53.62,1.67-.39,3.59-.75,4.93-1.39Z"/>
      <path class="cls-2" d="M107.07,77.71c2.9,3.68,4.34,8,4.48,12.52.33.16.79,0,.78-.17v-.69s.64-4.32.64-4.32c.05-.37.17-.72.34-1.05,0,0,0,0,0,0,3.43-6.69,8.66-12.27,16.24-12.9.3.08.95.06,1.33.06,3.07-.05,5.72,1.29,8.05,3.14,2.09,1.66,3.12,4.2,2.36,6.87-.59,2.07-2.33,3.41-4.16,3.7-2.12.34-4.21-.35-5.44-2.18-1.44-2.14-.79-4.97,1.46-6.58-1.89-1-4.02-1.14-6.2-.63-7.17,1.67-12.18,7.83-12.54,15.21,2.74.87,4.69,2.62,5.9,4.86,2.24,4.15.51,8.08-2.65,11.23-1.4,1.93-.66,5.26-.12,7.52l3.91,16.26.7,6.63c.85,8.02-.48,18.63-6.4,24.21-2.31,2.17-5.7,2.24-7.83-.17-4.89-5.53-6.29-15.31-6.5-22.96l.27-2.18c.36-7,1.85-13.72,3.66-20.5.59-2.21,1.05-4.36,1.07-6.58.01-1.51-.74-2.19-1.77-3.06-3.18-2.7-3.93-7.65-1.82-11.19,1.46-2.44,3.81-3.86,6.58-4.36-.59-6.85-4.98-12.73-11.53-14.71-2.37-.72-4.67-.72-7.18.31,1.77,1.3,2.6,3.14,2.1,5.33-.41,1.79-1.99,3.09-4.16,3.47-2.11.38-4.16-.54-5.28-2.22-1.04-1.57-1.48-3.8-.48-5.66,2.2-4.07,6.72-6.21,11.41-5.91,5.05.33,9.66,2.79,12.76,6.71ZM89.88,79.9c.17-1.09-.76-2.02-1.85-1.85-.68.1-1.24.66-1.34,1.34-.17,1.09.76,2.02,1.85,1.85.68-.1,1.24-.66,1.34-1.34ZM137.19,80.01c.16-1.07-.75-1.98-1.82-1.82-.67.1-1.21.65-1.31,1.31-.16,1.07.75,1.98,1.82,1.82.67-.1,1.21-.65,1.31-1.31Z"/>
    </g>
  </g>
</svg>