<?xml version="1.0" encoding="UTF-8"?>
<svg id="Ebene_1" data-name="Ebene 1" xmlns="http://www.w3.org/2000/svg" viewBox="0 0 184.41 244.54">
  <defs>
    <style>
      .cls-1 {
        fill: #fbfdfc;
      }

      .cls-2 {
        fill: #f8c4b1;
      }

      .cls-3 {
        fill: #faac95;
      }

      .cls-4 {
        fill: #4f6aae;
      }

      .cls-5 {
        fill: #df947e;
      }

      .cls-6 {
        fill: #e59781;
      }
    </style>
  </defs>
  <path class="cls-4" d="M184.36,244.54h-116.85l-6.26-24.83c-2.12-8-5.06-15.26-6.44-23.48-.45-2.68-2.91-5.17-2.06-8.4l9.75-3.27.25-2.19c23.57-7.82,47.15-15.65,70.74-23.48l1.77,1.52,5.96-1.86c.11,3.72,2.89,5.63,4.16,8.12l8.11,15.84c3.56,6.94,7.31,13.36,10.52,20.44l4.06,8.96,10.75,20.33c1.3,2.47,2.66,3.72,3.29,6.91.33,1.66,2.69,3.59,2.28,5.39Z"/>
  <path class="cls-1" d="M135.25,160.41l-72.75,24.15c-.27-2.78-1.51-5.05-3-8.22-.27-.57,0-1.25.59-1.47l5.49-2.12,64.03-20.01c3.03-.54,5.05,3.47,5.65,7.67Z"/>
  <path class="cls-6" d="M63.41,168.9c-5.46-11.05-12.26-18.62-18.43-27.43-2.97-4.24-4.47-9.35-4.19-14.52.02-.39.04-.66.07-.76.56-2.17,6.3,4.26,8.08,4.36l-.42,4.21c4.71,8.1,12.68,13.74,22.62,15.73-8.8,6.17-7.97,8.12-7.74,18.4Z"/>
  <path class="cls-2" d="M24.83,12.56c1.85,2.14,4.6,6.93,4.52,7.4l-8.48,3.25c-1.44.55-2.86,4.36-5.03,3.35l-5.94-6.76c-1.08-1.23-2.08-2.18-2.27-3.35-.27-1.75.66-3.1,2.18-4.19l5.66-4.44c2.39.9,4.94-.12,9.36,4.74Z"/>
  <path class="cls-3" d="M129.6,152.74c-3.53.63-11.64-20.14-13.58-30.58-1.7-16.05-1.19-31.91-1.74-48.23l-1.02-29.97c-.31-9.15-18.24-21.94-27.96-29.76-2.42-1.95-4.29-3.41-6.92-5.21L66.58.95c-1.69-1.15-3.78-1.35-5.09-.03-.22,2.22-.35,4.47-.44,6.73.12,3.07.12,6.21,0,9.43l1.62,3.28c1.11,1.45,2.63,2.77,4.55,3.94-2.62,2.6-4.17,5.81-4.87,9.22,0,3.21.02,6.42.12,9.62.3,1.41.71,2.79,1.22,4.11,2.27.24,4.59-.08,6.95-.95-2.54,2.3-4.47,5.33-4.4,8.86-1.36-1.7-2.65-2.76-3.86-3.22-.48.97-1.4,1.12-2.83.08-4.89-4.22-9.39-9.12-12.4-14.72l-.6-1.26c-1.33-2.82-3.11-5.42-5.36-7.58-.84-.8-1.73-1.54-2.58-2.01-2.56-1.43-4.84-3.3-6.98-5.3-.84-.79-1.73-1.58-2.76-2.4-4.41,1.02-9.29,2.79-12,5.73-8.54-6.17-6.74-12.66,1.14-16.1h0c-1.28-.28-2.4-1.03-3.21-2.05-1.31-1.65-3.75-.73-6.07.25C-2.54,11.3-1.34,24.04,3.65,32.08c1.53,2.46,8.07,9.29,8.07,9.29,5.93,5.32,10.27,11.69,14.05,18.4,2.32,4.12,3.79,8.66,4.4,13.34,1.87,14.41,3.49,34.83,3.49,34.83.25,3.99,6.16,16.56,6.16,16.56,1.45,3.01,5.59,9.8,8.71,10.27-1.62,5.34,6.53,10.8,10.91,13.5,2.16,1.33,4.58,2.23,6.97,3.06-6.13,5.34-5.53,10.69-2.99,17.58.61,1.24,1.09,2.6,2.16,3.86,1.62,1.63,4.2,1.52,7.75-.33,18.02-4.8,38.38-11.34,55.99-17.5.52-.18.44-1.4.28-2.18Z"/>
  <path class="cls-5" d="M59.53,52.02c.67-.15,1.23-.76,1.23-2.01l-.16-49.06.88-.03-.06,16.37c2.83,2.49,6.49,3.87,8.65,7.57-7.37,6.34-7.61,11.8-5.57,21.06,5.66-1.62,11.07-3.68,17.07-2.45-5.34.76-11.21,3.95-13.15,9.53-.44,1.27.7,5.05-2.04,4.93l-6.85-5.91Z"/>
</svg>